G75*
G70*
%OFA0B0*%
%FSLAX24Y24*%
%IPPOS*%
%LPD*%
%AMOC8*
5,1,8,0,0,1.08239X$1,22.5*
%
%ADD10C,0.0051*%
%ADD11C,0.0110*%
%ADD12R,0.0260X0.0800*%
%ADD13C,0.0740*%
%ADD14C,0.0100*%
%ADD15C,0.0080*%
D10*
X000126Y000487D02*
X000126Y010775D01*
X000126Y009988D02*
X001149Y009885D01*
X001149Y009862D02*
X000126Y009988D01*
X001149Y010090D01*
X001149Y010114D02*
X001149Y009862D01*
X001149Y009937D02*
X000126Y009988D01*
X001149Y010039D01*
X001149Y010114D02*
X000126Y009988D01*
X012996Y009988D01*
X011972Y009885D01*
X011972Y009862D02*
X012996Y009988D01*
X011972Y010090D01*
X011972Y010114D02*
X011972Y009862D01*
X011972Y009937D02*
X012996Y009988D01*
X011972Y010039D01*
X011972Y010114D02*
X012996Y009988D01*
X012996Y009983D02*
X017497Y009983D01*
X016710Y009983D02*
X016812Y008959D01*
X016836Y008959D02*
X016710Y009983D01*
X016608Y008959D01*
X016584Y008959D02*
X016836Y008959D01*
X016761Y008959D02*
X016710Y009983D01*
X016659Y008959D01*
X016584Y008959D02*
X016710Y009983D01*
X016710Y000487D01*
X016812Y001510D01*
X016836Y001510D02*
X016710Y000487D01*
X016608Y001510D01*
X016584Y001510D02*
X016836Y001510D01*
X016761Y001510D02*
X016710Y000487D01*
X016659Y001510D01*
X016584Y001510D02*
X016710Y000487D01*
X017497Y000487D02*
X012996Y000487D01*
X012996Y010775D01*
D11*
X009436Y010648D02*
X009436Y011494D01*
X009224Y011706D01*
X008801Y011706D01*
X008590Y011494D01*
X008590Y011283D01*
X008801Y011071D01*
X009436Y011071D01*
X009436Y010648D02*
X009224Y010437D01*
X008801Y010437D01*
X008590Y010648D01*
X008167Y010648D02*
X008167Y010860D01*
X007955Y011071D01*
X007321Y011071D01*
X007321Y010648D01*
X007532Y010437D01*
X007955Y010437D01*
X008167Y010648D01*
X007744Y011494D02*
X007321Y011071D01*
X006898Y010648D02*
X006898Y010437D01*
X006686Y010437D01*
X006686Y010648D01*
X006898Y010648D01*
X006264Y010437D02*
X005418Y010437D01*
X006264Y011283D01*
X006264Y011494D01*
X006052Y011706D01*
X005629Y011706D01*
X005418Y011494D01*
X004995Y011494D02*
X004995Y011283D01*
X004783Y011071D01*
X004995Y010860D01*
X004995Y010648D01*
X004783Y010437D01*
X004360Y010437D01*
X004149Y010648D01*
X004572Y011071D02*
X004783Y011071D01*
X004995Y011494D02*
X004783Y011706D01*
X004360Y011706D01*
X004149Y011494D01*
X007744Y011494D02*
X008167Y011706D01*
X014992Y007898D02*
X014992Y007475D01*
X015204Y007264D01*
X014992Y007898D02*
X015204Y008110D01*
X015415Y008110D01*
X016261Y007264D01*
X016261Y008110D01*
X016261Y006841D02*
X016261Y005995D01*
X016261Y005572D02*
X016050Y005572D01*
X016050Y005360D01*
X016261Y005360D01*
X016261Y005572D01*
X015627Y004938D02*
X015627Y004092D01*
X014992Y004726D01*
X016261Y004726D01*
X016261Y003669D02*
X016261Y002823D01*
X015415Y003669D01*
X015204Y003669D01*
X014992Y003457D01*
X014992Y003034D01*
X015204Y002823D01*
X015415Y005995D02*
X014992Y006418D01*
X016261Y006418D01*
D12*
X011876Y005197D03*
X011376Y005197D03*
X010876Y005197D03*
X010376Y005197D03*
X009876Y005197D03*
X009376Y005197D03*
X008876Y005197D03*
X008376Y005197D03*
X007376Y005197D03*
X006876Y005197D03*
X006376Y005197D03*
X005876Y005197D03*
X005376Y005197D03*
X004876Y005197D03*
X004376Y005197D03*
X003876Y005197D03*
X003876Y006277D03*
X004376Y006277D03*
X004876Y006277D03*
X005376Y006277D03*
X005876Y006277D03*
X006376Y006277D03*
X006876Y006277D03*
X007376Y006277D03*
X007376Y008697D03*
X006876Y008697D03*
X006376Y008697D03*
X005876Y008697D03*
X005376Y008697D03*
X004876Y008697D03*
X004376Y008697D03*
X003876Y008697D03*
X003876Y002777D03*
X004376Y002777D03*
X004876Y002777D03*
X005376Y002777D03*
X005876Y002777D03*
X006376Y002777D03*
X006876Y002777D03*
X007376Y002777D03*
X008376Y002777D03*
X008876Y002777D03*
X009376Y002777D03*
X009876Y002777D03*
X010376Y002777D03*
X010876Y002777D03*
X011376Y002777D03*
X011876Y002777D03*
D13*
X011626Y001487D03*
X010626Y001487D03*
X009626Y001487D03*
X008626Y001487D03*
X007626Y001487D03*
X006626Y001487D03*
X005626Y001487D03*
X004626Y001487D03*
X003626Y001487D03*
X001626Y003487D03*
X001626Y004487D03*
X001626Y005487D03*
X001626Y006487D03*
X001626Y007487D03*
X001626Y008487D03*
D14*
X001626Y008407D01*
X000626Y008987D02*
X001126Y009487D01*
X002626Y009487D01*
X003126Y008987D01*
X003586Y008987D01*
X003876Y008697D01*
X004376Y008697D02*
X004416Y008767D01*
X004416Y009037D01*
X004866Y009487D01*
X007656Y009487D01*
X008826Y008317D01*
X008826Y005257D01*
X008876Y005197D01*
X008376Y005167D02*
X008376Y005197D01*
X008376Y005257D01*
X007386Y006247D01*
X007376Y006277D01*
X007386Y006337D01*
X007656Y006607D01*
X007656Y009217D01*
X007566Y009307D01*
X005766Y009307D01*
X005406Y008947D01*
X005406Y008767D01*
X005376Y008697D01*
X005856Y008677D02*
X005856Y008407D01*
X005856Y008677D02*
X005876Y008697D01*
X006306Y008677D02*
X006306Y008407D01*
X006306Y008677D02*
X006376Y008697D01*
X006846Y008677D02*
X006876Y008697D01*
X006846Y008317D01*
X006846Y008677D01*
X004876Y008697D02*
X004866Y008677D01*
X001626Y006517D02*
X001626Y006487D01*
X001626Y005487D02*
X000626Y005487D01*
X000626Y008987D01*
X003876Y006277D02*
X003876Y005977D01*
X004326Y005527D01*
X004326Y005257D01*
X004376Y005197D01*
X004866Y005257D02*
X004876Y005197D01*
X004866Y005257D02*
X004866Y005527D01*
X004416Y005977D01*
X004416Y006247D01*
X004376Y006277D01*
X004876Y006277D02*
X004956Y006247D01*
X004956Y005977D01*
X005316Y005617D01*
X005316Y005257D01*
X005376Y005197D01*
X005856Y005257D02*
X005876Y005197D01*
X005856Y005257D02*
X005856Y005527D01*
X005406Y005977D01*
X005406Y006247D01*
X005376Y006277D01*
X005876Y006277D02*
X005946Y006247D01*
X005946Y005977D01*
X006306Y005617D01*
X006306Y005257D01*
X006376Y005197D01*
X006846Y005257D02*
X006846Y005527D01*
X006396Y005977D01*
X006396Y006247D01*
X006376Y006277D01*
X006876Y006277D02*
X006936Y006247D01*
X006936Y005887D01*
X007296Y005527D01*
X007296Y005257D01*
X007376Y005197D01*
X006876Y005197D02*
X006846Y005257D01*
X007836Y004627D02*
X008376Y005167D01*
X007836Y004627D02*
X004146Y004627D01*
X003876Y004897D01*
X003876Y005197D01*
X003876Y004862D01*
X002376Y004862D01*
X002376Y004487D01*
X001626Y004487D01*
X001626Y003487D02*
X001716Y003367D01*
X002796Y003367D01*
X003336Y002827D01*
X003696Y002827D01*
X004236Y003367D01*
X007566Y003367D01*
X008106Y002827D01*
X008196Y002827D01*
X008736Y003367D01*
X012066Y003367D01*
X012156Y003277D01*
X012156Y002287D01*
X011706Y001837D01*
X011706Y001567D01*
X011626Y001487D01*
X010626Y001487D02*
X010626Y001567D01*
X010176Y002017D01*
X009366Y002017D01*
X008916Y002467D01*
X008916Y002737D01*
X008876Y002777D01*
X008376Y002777D02*
X008376Y002827D01*
X008196Y002827D01*
X007656Y002737D02*
X008376Y002017D01*
X009096Y002017D01*
X009626Y001487D01*
X008626Y001487D02*
X008556Y001567D01*
X008106Y002017D01*
X007386Y002017D01*
X006936Y002467D01*
X006936Y002737D01*
X006876Y002777D01*
X007376Y002777D02*
X007386Y002737D01*
X007656Y002737D01*
X007296Y001567D02*
X006396Y002467D01*
X006396Y002737D01*
X006376Y002777D01*
X005946Y002737D02*
X005876Y002777D01*
X005946Y002737D02*
X005946Y002197D01*
X006576Y001567D01*
X006626Y001487D01*
X007296Y001567D02*
X007566Y001567D01*
X007626Y001487D01*
X005626Y001487D02*
X005586Y001567D01*
X005406Y001747D01*
X005406Y002737D01*
X005376Y002777D01*
X004876Y002777D02*
X004866Y002737D01*
X004866Y001747D01*
X004686Y001567D01*
X004626Y001487D01*
X004326Y002197D02*
X003696Y001567D01*
X003626Y001487D01*
X004326Y002197D02*
X004326Y002737D01*
X004376Y002777D01*
X003876Y002777D02*
X003876Y002827D01*
X003696Y002827D01*
X001751Y003362D02*
X001626Y003487D01*
X003876Y005197D02*
X003876Y005257D01*
D15*
X003376Y007237D02*
X001626Y005487D01*
X001626Y006487D02*
X002626Y007487D01*
X004376Y007487D01*
X004626Y007737D01*
X005626Y007737D01*
X006376Y008487D01*
X006376Y008697D01*
X006876Y008697D02*
X006876Y008487D01*
X005876Y007487D01*
X004626Y007487D01*
X004376Y007237D01*
X003376Y007237D01*
X004376Y007737D02*
X001876Y007737D01*
X001626Y007487D01*
X002126Y007987D02*
X001626Y008487D01*
X002126Y007987D02*
X004376Y007987D01*
X004876Y008487D01*
X004876Y008697D01*
X004626Y007987D02*
X004376Y007737D01*
X004626Y007987D02*
X005376Y007987D01*
X005876Y008487D01*
X005876Y008697D01*
M02*
