G75*
G70*
%OFA0B0*%
%FSLAX24Y24*%
%IPPOS*%
%LPD*%
%AMOC8*
5,1,8,0,0,1.08239X$1,22.5*
%
%ADD10R,0.0276X0.0354*%
%ADD11R,0.0354X0.0276*%
%ADD12R,0.0472X0.0984*%
%ADD13R,0.0260X0.0800*%
%ADD14C,0.0520*%
%ADD15R,0.0137X0.0550*%
%ADD16OC8,0.0600*%
%ADD17C,0.0160*%
%ADD18C,0.0100*%
%ADD19C,0.0400*%
D10*
X013424Y006680D03*
X013936Y006680D03*
D11*
X014680Y008924D03*
X014680Y009436D03*
D12*
X014830Y005680D03*
X013530Y005680D03*
D13*
X013430Y007970D03*
X012930Y007970D03*
X012430Y007970D03*
X011930Y007970D03*
X011430Y007970D03*
X010930Y007970D03*
X010430Y007970D03*
X009430Y007970D03*
X008930Y007970D03*
X008430Y007970D03*
X007930Y007970D03*
X007430Y007970D03*
X006930Y007970D03*
X006430Y007970D03*
X005930Y007970D03*
X004930Y007970D03*
X004430Y007970D03*
X003930Y007970D03*
X003430Y007970D03*
X002930Y007970D03*
X002430Y007970D03*
X001930Y007970D03*
X001430Y007970D03*
X001430Y010390D03*
X001930Y010390D03*
X002430Y010390D03*
X002930Y010390D03*
X003430Y010390D03*
X003930Y010390D03*
X004430Y010390D03*
X004930Y010390D03*
X005930Y010390D03*
X006430Y010390D03*
X006930Y010390D03*
X007430Y010390D03*
X007930Y010390D03*
X008430Y010390D03*
X008930Y010390D03*
X009430Y010390D03*
X010430Y010390D03*
X010930Y010390D03*
X011430Y010390D03*
X011930Y010390D03*
X012430Y010390D03*
X012930Y010390D03*
X013430Y010390D03*
X013930Y010390D03*
X013930Y007970D03*
D14*
X010180Y011920D02*
X010180Y012440D01*
X009180Y012440D02*
X009180Y011920D01*
X008180Y011920D02*
X008180Y012440D01*
X007180Y012440D02*
X007180Y011920D01*
X006180Y011920D02*
X006180Y012440D01*
X005180Y012440D02*
X005180Y011920D01*
D15*
X005076Y006619D03*
X005332Y006619D03*
X005587Y006619D03*
X006273Y006619D03*
X006528Y006619D03*
X006784Y006619D03*
X007040Y006619D03*
X007296Y006619D03*
X007552Y006619D03*
X007808Y006619D03*
X008064Y006619D03*
X008320Y006619D03*
X008576Y006619D03*
X008832Y006619D03*
X009087Y006619D03*
X009773Y006619D03*
X010028Y006619D03*
X010284Y006619D03*
X010540Y006619D03*
X010796Y006619D03*
X011052Y006619D03*
X011308Y006619D03*
X011564Y006619D03*
X011820Y006619D03*
X012076Y006619D03*
X012332Y006619D03*
X012587Y006619D03*
X012587Y003741D03*
X012332Y003741D03*
X012076Y003741D03*
X011820Y003741D03*
X011564Y003741D03*
X011308Y003741D03*
X011052Y003741D03*
X010796Y003741D03*
X010540Y003741D03*
X010284Y003741D03*
X010028Y003741D03*
X009773Y003741D03*
X009087Y003741D03*
X008832Y003741D03*
X008576Y003741D03*
X008320Y003741D03*
X008064Y003741D03*
X007808Y003741D03*
X007552Y003741D03*
X007296Y003741D03*
X007040Y003741D03*
X006784Y003741D03*
X006528Y003741D03*
X006273Y003741D03*
X005587Y003741D03*
X005332Y003741D03*
X005076Y003741D03*
X004820Y003741D03*
X004564Y003741D03*
X004308Y003741D03*
X004052Y003741D03*
X003796Y003741D03*
X003540Y003741D03*
X003284Y003741D03*
X003028Y003741D03*
X002773Y003741D03*
X002773Y006619D03*
X003028Y006619D03*
X003284Y006619D03*
X003540Y006619D03*
X003796Y006619D03*
X004052Y006619D03*
X004308Y006619D03*
X004564Y006619D03*
X004820Y006619D03*
D16*
X005180Y002680D03*
X006180Y002680D03*
X007180Y002680D03*
X007180Y001680D03*
X006180Y001680D03*
X005180Y001680D03*
X008180Y001680D03*
X009180Y001680D03*
X010180Y001680D03*
X010180Y002680D03*
X009180Y002680D03*
X008180Y002680D03*
D17*
X000660Y000660D02*
X000660Y014696D01*
X015570Y014696D01*
X015570Y000660D01*
X000660Y000660D01*
X000660Y000814D02*
X015570Y000814D01*
X015570Y000973D02*
X012894Y000973D01*
X012892Y000970D02*
X013015Y001093D01*
X013015Y004142D01*
X012892Y004265D01*
X012767Y004390D01*
X010968Y004390D01*
X010845Y004267D01*
X010845Y004176D01*
X010692Y004176D01*
X010678Y004183D01*
X010632Y004196D01*
X010540Y004196D01*
X010448Y004196D01*
X010412Y004186D01*
X010377Y004196D01*
X010284Y004196D01*
X010192Y004196D01*
X010146Y004183D01*
X010133Y004176D01*
X009638Y004176D01*
X009544Y004082D01*
X009544Y003399D01*
X009595Y003348D01*
X009595Y003140D01*
X009015Y003140D01*
X009015Y003306D01*
X009222Y003306D01*
X009316Y003399D01*
X009316Y004082D01*
X009222Y004176D01*
X008727Y004176D01*
X008714Y004183D01*
X008668Y004196D01*
X008576Y004196D01*
X008576Y003741D01*
X008576Y003741D01*
X008576Y004196D01*
X008483Y004196D01*
X008448Y004186D01*
X008412Y004196D01*
X008320Y004196D01*
X008320Y003741D01*
X008320Y003741D01*
X008576Y003741D01*
X008576Y003741D01*
X008576Y003286D01*
X008595Y003286D01*
X008595Y003140D01*
X008371Y003140D01*
X008015Y003140D01*
X008015Y003306D01*
X008168Y003306D01*
X008182Y003298D01*
X008228Y003286D01*
X008320Y003286D01*
X008412Y003286D01*
X008448Y003295D01*
X008483Y003286D01*
X008576Y003286D01*
X008576Y003741D01*
X008576Y003741D01*
X008327Y003741D01*
X008320Y003741D01*
X008320Y003741D01*
X008320Y004196D01*
X008228Y004196D01*
X008182Y004183D01*
X008168Y004176D01*
X007192Y004176D01*
X007178Y004183D01*
X007132Y004196D01*
X007040Y004196D01*
X006948Y004196D01*
X006912Y004186D01*
X006877Y004196D01*
X006784Y004196D01*
X006692Y004196D01*
X006646Y004183D01*
X006633Y004176D01*
X006138Y004176D01*
X006044Y004082D01*
X006044Y003399D01*
X006138Y003306D01*
X006345Y003306D01*
X006345Y003140D01*
X005765Y003140D01*
X005765Y003348D01*
X005816Y003399D01*
X005816Y004082D01*
X005722Y004176D01*
X005227Y004176D01*
X005214Y004183D01*
X005168Y004196D01*
X005076Y004196D01*
X005076Y003741D01*
X005076Y003741D01*
X005076Y004196D01*
X004983Y004196D01*
X004948Y004186D01*
X004912Y004196D01*
X004820Y004196D01*
X004820Y003741D01*
X004820Y003741D01*
X005076Y003741D01*
X005076Y003741D01*
X005076Y003286D01*
X005168Y003286D01*
X005214Y003298D01*
X005227Y003306D01*
X005345Y003306D01*
X005345Y003140D01*
X004989Y003140D01*
X004739Y002890D01*
X004265Y002890D01*
X004265Y003306D01*
X004668Y003306D01*
X004682Y003298D01*
X004728Y003286D01*
X004820Y003286D01*
X004912Y003286D01*
X004948Y003295D01*
X004983Y003286D01*
X005076Y003286D01*
X005076Y003741D01*
X005076Y003741D01*
X004827Y003741D01*
X004820Y003741D01*
X004820Y003741D01*
X004820Y004196D01*
X004728Y004196D01*
X004682Y004183D01*
X004668Y004176D01*
X004515Y004176D01*
X004515Y004267D01*
X004392Y004390D01*
X002593Y004390D01*
X002468Y004265D01*
X002345Y004142D01*
X002345Y001093D01*
X002468Y000970D01*
X005767Y000970D01*
X006017Y001220D01*
X006371Y001220D01*
X006621Y001470D01*
X006739Y001470D01*
X006989Y001220D01*
X007371Y001220D01*
X007621Y001470D01*
X007739Y001470D01*
X007989Y001220D01*
X008371Y001220D01*
X008640Y001489D01*
X008640Y001871D01*
X008371Y002140D01*
X007989Y002140D01*
X007890Y002041D01*
X007890Y002319D01*
X007989Y002220D01*
X008371Y002220D01*
X008640Y002489D01*
X008640Y002720D01*
X008720Y002720D01*
X008720Y002489D01*
X008989Y002220D01*
X009371Y002220D01*
X009640Y002489D01*
X009640Y002720D01*
X009720Y002720D01*
X009720Y002489D01*
X009989Y002220D01*
X010371Y002220D01*
X010621Y002470D01*
X011392Y002470D01*
X011515Y002593D01*
X011515Y003306D01*
X011668Y003306D01*
X011682Y003298D01*
X011728Y003286D01*
X011820Y003286D01*
X011912Y003286D01*
X011948Y003295D01*
X011983Y003286D01*
X012076Y003286D01*
X012095Y003286D01*
X012095Y001890D01*
X010621Y001890D01*
X010371Y002140D01*
X009989Y002140D01*
X009720Y001871D01*
X009720Y001489D01*
X009819Y001390D01*
X009767Y001390D01*
X009640Y001517D01*
X009640Y001871D01*
X009371Y002140D01*
X008989Y002140D01*
X008720Y001871D01*
X008720Y001489D01*
X008989Y001220D01*
X009343Y001220D01*
X009593Y000970D01*
X012892Y000970D01*
X013015Y001131D02*
X015570Y001131D01*
X015570Y001290D02*
X013015Y001290D01*
X013015Y001448D02*
X015570Y001448D01*
X015570Y001607D02*
X013015Y001607D01*
X013015Y001765D02*
X015570Y001765D01*
X015570Y001924D02*
X013015Y001924D01*
X013015Y002082D02*
X015570Y002082D01*
X015570Y002241D02*
X013015Y002241D01*
X013015Y002399D02*
X015570Y002399D01*
X015570Y002558D02*
X013015Y002558D01*
X013015Y002716D02*
X015570Y002716D01*
X015570Y002875D02*
X013015Y002875D01*
X013015Y003033D02*
X015570Y003033D01*
X015570Y003192D02*
X013015Y003192D01*
X013015Y003350D02*
X015570Y003350D01*
X015570Y003509D02*
X013015Y003509D01*
X013015Y003667D02*
X015570Y003667D01*
X015570Y003826D02*
X013015Y003826D01*
X013015Y003984D02*
X015570Y003984D01*
X015570Y004143D02*
X013014Y004143D01*
X012856Y004301D02*
X015570Y004301D01*
X015570Y004460D02*
X000660Y004460D01*
X000660Y004618D02*
X015570Y004618D01*
X015570Y004777D02*
X000660Y004777D01*
X000660Y004935D02*
X015570Y004935D01*
X015570Y005094D02*
X015219Y005094D01*
X015210Y005077D02*
X015234Y005118D01*
X015246Y005164D01*
X015246Y005642D01*
X014868Y005642D01*
X014868Y005718D01*
X015246Y005718D01*
X015246Y006196D01*
X015234Y006242D01*
X015210Y006283D01*
X015176Y006316D01*
X015135Y006340D01*
X015090Y006352D01*
X014868Y006352D01*
X014868Y005718D01*
X014791Y005718D01*
X014791Y005642D01*
X014413Y005642D01*
X014413Y005164D01*
X014426Y005118D01*
X014449Y005077D01*
X014483Y005044D01*
X014524Y005020D01*
X014570Y005008D01*
X014791Y005008D01*
X014791Y005642D01*
X014868Y005642D01*
X014868Y005008D01*
X015090Y005008D01*
X015135Y005020D01*
X015176Y005044D01*
X015210Y005077D01*
X015246Y005252D02*
X015570Y005252D01*
X015570Y005411D02*
X015246Y005411D01*
X015246Y005569D02*
X015570Y005569D01*
X015570Y005728D02*
X015246Y005728D01*
X015246Y005886D02*
X015570Y005886D01*
X015570Y006045D02*
X015246Y006045D01*
X015244Y006203D02*
X015570Y006203D01*
X015570Y006362D02*
X014187Y006362D01*
X014184Y006359D02*
X014218Y006392D01*
X014241Y006433D01*
X014254Y006479D01*
X014254Y006680D01*
X014254Y006881D01*
X014241Y006927D01*
X014218Y006968D01*
X014184Y007001D01*
X014143Y007025D01*
X014097Y007037D01*
X014084Y007037D01*
X015142Y008095D01*
X015265Y008218D01*
X015265Y013267D01*
X015142Y013390D01*
X007093Y013390D01*
X006458Y012755D01*
X006418Y012796D01*
X006264Y012860D01*
X006096Y012860D01*
X005942Y012796D01*
X005839Y012693D01*
X005767Y012765D01*
X005392Y013140D01*
X001343Y013140D01*
X001220Y013017D01*
X001220Y010936D01*
X001140Y010856D01*
X001140Y009924D01*
X001234Y009830D01*
X001626Y009830D01*
X001680Y009884D01*
X001734Y009830D01*
X002126Y009830D01*
X002180Y009884D01*
X002234Y009830D01*
X002626Y009830D01*
X002666Y009870D01*
X002689Y009846D01*
X002731Y009822D01*
X002776Y009810D01*
X002930Y009810D01*
X003084Y009810D01*
X003129Y009822D01*
X003171Y009846D01*
X003194Y009870D01*
X003220Y009844D01*
X003220Y009468D01*
X003343Y009345D01*
X009048Y009345D01*
X009108Y009320D01*
X009252Y009320D01*
X009312Y009345D01*
X012517Y009345D01*
X012640Y009468D01*
X012640Y009844D01*
X012680Y009884D01*
X012734Y009830D01*
X013126Y009830D01*
X013180Y009884D01*
X013234Y009830D01*
X013358Y009830D01*
X013593Y009595D01*
X014343Y009595D01*
X014343Y009232D01*
X014381Y009194D01*
X014359Y009172D01*
X014335Y009131D01*
X014323Y009086D01*
X014323Y008924D01*
X014323Y008763D01*
X014335Y008717D01*
X014359Y008676D01*
X014392Y008642D01*
X014433Y008619D01*
X014479Y008606D01*
X014680Y008606D01*
X014845Y008606D01*
X014845Y008392D01*
X014240Y007787D01*
X014240Y007970D01*
X014240Y008394D01*
X014228Y008439D01*
X014204Y008481D01*
X014171Y008514D01*
X014129Y008538D01*
X014084Y008550D01*
X013930Y008550D01*
X013930Y007970D01*
X013930Y007970D01*
X014240Y007970D01*
X013930Y007970D01*
X013930Y007970D01*
X013930Y008550D01*
X013776Y008550D01*
X013731Y008538D01*
X013689Y008514D01*
X013666Y008490D01*
X013626Y008530D01*
X013234Y008530D01*
X013180Y008476D01*
X013126Y008530D01*
X012734Y008530D01*
X012680Y008476D01*
X012626Y008530D01*
X012234Y008530D01*
X012180Y008476D01*
X012126Y008530D01*
X011734Y008530D01*
X011680Y008476D01*
X011626Y008530D01*
X011234Y008530D01*
X011180Y008476D01*
X011126Y008530D01*
X010734Y008530D01*
X010680Y008476D01*
X010626Y008530D01*
X010234Y008530D01*
X010140Y008436D01*
X010140Y008140D01*
X009968Y008140D01*
X009845Y008017D01*
X009845Y007054D01*
X009638Y007054D01*
X009544Y006961D01*
X009544Y006890D01*
X009316Y006890D01*
X009316Y006961D01*
X009222Y007054D01*
X008765Y007054D01*
X008765Y007410D01*
X009126Y007410D01*
X009166Y007450D01*
X009189Y007426D01*
X009231Y007402D01*
X009276Y007390D01*
X009430Y007390D01*
X009584Y007390D01*
X009629Y007402D01*
X009671Y007426D01*
X009704Y007459D01*
X009728Y007501D01*
X009740Y007546D01*
X009740Y007970D01*
X009740Y008394D01*
X009728Y008439D01*
X009704Y008481D01*
X009671Y008514D01*
X009629Y008538D01*
X009584Y008550D01*
X009430Y008550D01*
X009430Y007970D01*
X009740Y007970D01*
X009430Y007970D01*
X009430Y007970D01*
X009430Y007970D01*
X009430Y007390D01*
X009430Y007970D01*
X009430Y007970D01*
X009430Y008550D01*
X009276Y008550D01*
X009231Y008538D01*
X009189Y008514D01*
X009166Y008490D01*
X009126Y008530D01*
X008734Y008530D01*
X008680Y008476D01*
X008626Y008530D01*
X008234Y008530D01*
X008180Y008476D01*
X008126Y008530D01*
X007734Y008530D01*
X007680Y008476D01*
X007626Y008530D01*
X007234Y008530D01*
X007180Y008476D01*
X007126Y008530D01*
X006734Y008530D01*
X006680Y008476D01*
X006626Y008530D01*
X006234Y008530D01*
X006180Y008476D01*
X006126Y008530D01*
X005734Y008530D01*
X005640Y008436D01*
X005640Y007504D01*
X005734Y007410D01*
X005903Y007410D01*
X006259Y007054D01*
X006138Y007054D01*
X006044Y006961D01*
X006044Y006890D01*
X005816Y006890D01*
X005816Y006961D01*
X005754Y007022D01*
X005790Y007108D01*
X005790Y007252D01*
X005735Y007384D01*
X005634Y007485D01*
X005515Y007534D01*
X005515Y009142D01*
X005392Y009265D01*
X003718Y009265D01*
X003343Y008890D01*
X003220Y008767D01*
X003220Y008516D01*
X003180Y008476D01*
X003126Y008530D01*
X003002Y008530D01*
X002767Y008765D01*
X000968Y008765D01*
X000845Y008642D01*
X000845Y007093D01*
X000968Y006970D01*
X002218Y005720D01*
X004642Y005720D01*
X004765Y005843D01*
X004765Y006184D01*
X005345Y006184D01*
X005345Y005718D01*
X005468Y005595D01*
X008392Y005595D01*
X008767Y005970D01*
X012392Y005970D01*
X012515Y006093D01*
X012515Y006184D01*
X012722Y006184D01*
X012816Y006278D01*
X012816Y006470D01*
X013126Y006470D01*
X013126Y006437D01*
X013220Y006343D01*
X013220Y006324D01*
X013134Y006238D01*
X013134Y005122D01*
X013228Y005028D01*
X013833Y005028D01*
X013927Y005122D01*
X013927Y006238D01*
X013842Y006323D01*
X013936Y006323D01*
X014097Y006323D01*
X014143Y006335D01*
X014184Y006359D01*
X014254Y006520D02*
X015570Y006520D01*
X015570Y006679D02*
X014254Y006679D01*
X014254Y006680D02*
X013936Y006680D01*
X014254Y006680D01*
X014254Y006837D02*
X015570Y006837D01*
X015570Y006996D02*
X014190Y006996D01*
X014201Y007154D02*
X015570Y007154D01*
X015570Y007313D02*
X014359Y007313D01*
X014518Y007471D02*
X015570Y007471D01*
X015570Y007630D02*
X014676Y007630D01*
X014835Y007788D02*
X015570Y007788D01*
X015570Y007947D02*
X014993Y007947D01*
X015152Y008105D02*
X015570Y008105D01*
X015570Y008264D02*
X015265Y008264D01*
X015265Y008422D02*
X015570Y008422D01*
X015570Y008581D02*
X015265Y008581D01*
X015265Y008739D02*
X015570Y008739D01*
X015570Y008898D02*
X015265Y008898D01*
X015265Y009056D02*
X015570Y009056D01*
X015570Y009215D02*
X015265Y009215D01*
X015265Y009373D02*
X015570Y009373D01*
X015570Y009532D02*
X015265Y009532D01*
X015265Y009690D02*
X015570Y009690D01*
X015570Y009849D02*
X015265Y009849D01*
X015265Y010007D02*
X015570Y010007D01*
X015570Y010166D02*
X015265Y010166D01*
X015265Y010324D02*
X015570Y010324D01*
X015570Y010483D02*
X015265Y010483D01*
X015265Y010641D02*
X015570Y010641D01*
X015570Y010800D02*
X015265Y010800D01*
X015265Y010958D02*
X015570Y010958D01*
X015570Y011117D02*
X015265Y011117D01*
X015265Y011275D02*
X015570Y011275D01*
X015570Y011434D02*
X015265Y011434D01*
X015265Y011592D02*
X015570Y011592D01*
X015570Y011751D02*
X015265Y011751D01*
X015265Y011909D02*
X015570Y011909D01*
X015570Y012068D02*
X015265Y012068D01*
X015265Y012226D02*
X015570Y012226D01*
X015570Y012385D02*
X015265Y012385D01*
X015265Y012543D02*
X015570Y012543D01*
X015570Y012702D02*
X015265Y012702D01*
X015265Y012860D02*
X015570Y012860D01*
X015570Y013019D02*
X015265Y013019D01*
X015265Y013177D02*
X015570Y013177D01*
X015570Y013336D02*
X015196Y013336D01*
X015570Y013494D02*
X000660Y013494D01*
X000660Y013336D02*
X007039Y013336D01*
X006880Y013177D02*
X000660Y013177D01*
X000660Y013019D02*
X001222Y013019D01*
X001220Y012860D02*
X000660Y012860D01*
X000660Y012702D02*
X001220Y012702D01*
X001220Y012543D02*
X000660Y012543D01*
X000660Y012385D02*
X001220Y012385D01*
X001220Y012226D02*
X000660Y012226D01*
X000660Y012068D02*
X001220Y012068D01*
X001220Y011909D02*
X000660Y011909D01*
X000660Y011751D02*
X001220Y011751D01*
X001220Y011592D02*
X000660Y011592D01*
X000660Y011434D02*
X001220Y011434D01*
X001220Y011275D02*
X000660Y011275D01*
X000660Y011117D02*
X001220Y011117D01*
X001220Y010958D02*
X000660Y010958D01*
X000660Y010800D02*
X001140Y010800D01*
X001140Y010641D02*
X000660Y010641D01*
X000660Y010483D02*
X001140Y010483D01*
X001140Y010324D02*
X000660Y010324D01*
X000660Y010166D02*
X001140Y010166D01*
X001140Y010007D02*
X000660Y010007D01*
X000660Y009849D02*
X001215Y009849D01*
X001645Y009849D02*
X001715Y009849D01*
X002145Y009849D02*
X002215Y009849D01*
X002645Y009849D02*
X002687Y009849D01*
X002930Y009849D02*
X002930Y009849D01*
X002930Y009810D02*
X002930Y010390D01*
X002930Y010390D01*
X002930Y010970D01*
X003084Y010970D01*
X003129Y010958D01*
X003171Y010934D01*
X003194Y010910D01*
X003234Y010950D01*
X003626Y010950D01*
X003680Y010896D01*
X003720Y010936D01*
X003720Y011093D01*
X003720Y011267D01*
X003843Y011390D01*
X005470Y011390D01*
X005470Y011616D01*
X005418Y011564D01*
X005264Y011500D01*
X005096Y011500D01*
X004942Y011564D01*
X004824Y011682D01*
X004760Y011836D01*
X004760Y011970D01*
X002640Y011970D01*
X002640Y010936D01*
X002666Y010910D01*
X002689Y010934D01*
X002731Y010958D01*
X002776Y010970D01*
X002930Y010970D01*
X002930Y010390D01*
X002930Y010390D01*
X002930Y009810D01*
X002930Y010007D02*
X002930Y010007D01*
X002930Y010166D02*
X002930Y010166D01*
X002930Y010324D02*
X002930Y010324D01*
X002930Y010483D02*
X002930Y010483D01*
X002930Y010641D02*
X002930Y010641D01*
X002930Y010800D02*
X002930Y010800D01*
X002930Y010958D02*
X002930Y010958D01*
X002732Y010958D02*
X002640Y010958D01*
X002640Y011117D02*
X003720Y011117D01*
X003728Y011275D02*
X002640Y011275D01*
X002640Y011434D02*
X005470Y011434D01*
X005470Y011592D02*
X005446Y011592D01*
X004914Y011592D02*
X002640Y011592D01*
X002640Y011751D02*
X004796Y011751D01*
X004760Y011909D02*
X002640Y011909D01*
X003128Y010958D02*
X003720Y010958D01*
X003215Y009849D02*
X003173Y009849D01*
X003220Y009690D02*
X000660Y009690D01*
X000660Y009532D02*
X003220Y009532D01*
X003315Y009373D02*
X000660Y009373D01*
X000660Y009215D02*
X003668Y009215D01*
X003509Y009056D02*
X000660Y009056D01*
X000660Y008898D02*
X003351Y008898D01*
X003220Y008739D02*
X002793Y008739D01*
X002951Y008581D02*
X003220Y008581D01*
X004251Y008845D02*
X005095Y008845D01*
X005095Y008547D01*
X005084Y008550D01*
X004930Y008550D01*
X004930Y007970D01*
X004930Y007970D01*
X004930Y008550D01*
X004776Y008550D01*
X004731Y008538D01*
X004689Y008514D01*
X004666Y008490D01*
X004626Y008530D01*
X004258Y008530D01*
X004290Y008608D01*
X004290Y008752D01*
X004251Y008845D01*
X004290Y008739D02*
X005095Y008739D01*
X005095Y008581D02*
X004278Y008581D01*
X004930Y008422D02*
X004930Y008422D01*
X004930Y008264D02*
X004930Y008264D01*
X004930Y008105D02*
X004930Y008105D01*
X005515Y008105D02*
X005640Y008105D01*
X005640Y007947D02*
X005515Y007947D01*
X005515Y007788D02*
X005640Y007788D01*
X005640Y007630D02*
X005515Y007630D01*
X005648Y007471D02*
X005673Y007471D01*
X005765Y007313D02*
X006001Y007313D01*
X006159Y007154D02*
X005790Y007154D01*
X005781Y006996D02*
X006079Y006996D01*
X005345Y006045D02*
X004765Y006045D01*
X004765Y005886D02*
X005345Y005886D01*
X005345Y005728D02*
X004649Y005728D01*
X004345Y006140D02*
X003265Y006140D01*
X003265Y006184D01*
X003405Y006184D01*
X004157Y006184D01*
X004170Y006177D01*
X004216Y006164D01*
X004308Y006164D01*
X004345Y006164D01*
X004345Y006140D01*
X004308Y006164D02*
X004308Y006619D01*
X004308Y006619D01*
X004308Y006164D01*
X004308Y006203D02*
X004308Y006203D01*
X004308Y006362D02*
X004308Y006362D01*
X004308Y006520D02*
X004308Y006520D01*
X005515Y008264D02*
X005640Y008264D01*
X005640Y008422D02*
X005515Y008422D01*
X005515Y008581D02*
X014845Y008581D01*
X014845Y008422D02*
X014232Y008422D01*
X014240Y008264D02*
X014717Y008264D01*
X014558Y008105D02*
X014240Y008105D01*
X014240Y007947D02*
X014400Y007947D01*
X014241Y007788D02*
X014240Y007788D01*
X013930Y008105D02*
X013930Y008105D01*
X013930Y008264D02*
X013930Y008264D01*
X013930Y008422D02*
X013930Y008422D01*
X014329Y008739D02*
X005515Y008739D01*
X005515Y008898D02*
X014323Y008898D01*
X014323Y008924D02*
X014680Y008924D01*
X014680Y008606D01*
X014680Y008924D01*
X014680Y008924D01*
X014680Y008924D01*
X014323Y008924D01*
X014323Y009056D02*
X005515Y009056D01*
X005442Y009215D02*
X014360Y009215D01*
X014343Y009373D02*
X012545Y009373D01*
X012640Y009532D02*
X014343Y009532D01*
X014680Y008898D02*
X014680Y008898D01*
X014680Y008739D02*
X014680Y008739D01*
X013498Y009690D02*
X012640Y009690D01*
X012645Y009849D02*
X012715Y009849D01*
X013145Y009849D02*
X013215Y009849D01*
X012220Y009844D02*
X012220Y009765D01*
X011437Y009765D01*
X011502Y009830D01*
X011626Y009830D01*
X011666Y009870D01*
X011689Y009846D01*
X011731Y009822D01*
X011776Y009810D01*
X011930Y009810D01*
X012084Y009810D01*
X012129Y009822D01*
X012171Y009846D01*
X012194Y009870D01*
X012220Y009844D01*
X012215Y009849D02*
X012173Y009849D01*
X011930Y009849D02*
X011930Y009849D01*
X011930Y009810D02*
X011930Y010390D01*
X011930Y010390D01*
X011930Y010970D01*
X012084Y010970D01*
X012129Y010958D01*
X012171Y010934D01*
X012194Y010910D01*
X012234Y010950D01*
X012626Y010950D01*
X012680Y010896D01*
X012720Y010936D01*
X012720Y011095D01*
X011354Y011095D01*
X011259Y011000D01*
X011130Y010946D01*
X011180Y010896D01*
X011234Y010950D01*
X011626Y010950D01*
X011666Y010910D01*
X011689Y010934D01*
X011731Y010958D01*
X011776Y010970D01*
X011930Y010970D01*
X011930Y010390D01*
X011930Y010390D01*
X011930Y009810D01*
X011687Y009849D02*
X011645Y009849D01*
X011930Y010007D02*
X011930Y010007D01*
X011930Y010166D02*
X011930Y010166D01*
X011930Y010324D02*
X011930Y010324D01*
X011930Y010483D02*
X011930Y010483D01*
X011930Y010641D02*
X011930Y010641D01*
X011930Y010800D02*
X011930Y010800D01*
X011930Y010958D02*
X011930Y010958D01*
X011732Y010958D02*
X011158Y010958D01*
X012128Y010958D02*
X012720Y010958D01*
X010140Y008422D02*
X009732Y008422D01*
X009740Y008264D02*
X010140Y008264D01*
X009933Y008105D02*
X009740Y008105D01*
X009740Y007947D02*
X009845Y007947D01*
X009845Y007788D02*
X009740Y007788D01*
X009740Y007630D02*
X009845Y007630D01*
X009845Y007471D02*
X009711Y007471D01*
X009845Y007313D02*
X008765Y007313D01*
X008765Y007154D02*
X009845Y007154D01*
X009579Y006996D02*
X009281Y006996D01*
X009430Y007471D02*
X009430Y007471D01*
X009430Y007630D02*
X009430Y007630D01*
X009430Y007788D02*
X009430Y007788D01*
X009430Y007947D02*
X009430Y007947D01*
X009430Y008105D02*
X009430Y008105D01*
X009430Y008264D02*
X009430Y008264D01*
X009430Y008422D02*
X009430Y008422D01*
X011168Y007451D02*
X011180Y007464D01*
X011234Y007410D01*
X011345Y007410D01*
X011345Y007074D01*
X011308Y007074D01*
X011308Y006619D01*
X011308Y006619D01*
X011308Y007074D01*
X011276Y007074D01*
X011290Y007108D01*
X011290Y007252D01*
X011235Y007384D01*
X011168Y007451D01*
X011265Y007313D02*
X011345Y007313D01*
X011345Y007154D02*
X011290Y007154D01*
X011308Y006996D02*
X011308Y006996D01*
X011308Y006837D02*
X011308Y006837D01*
X011308Y006679D02*
X011308Y006679D01*
X012466Y006045D02*
X013134Y006045D01*
X013134Y006203D02*
X012741Y006203D01*
X012816Y006362D02*
X013201Y006362D01*
X013134Y005886D02*
X008683Y005886D01*
X008524Y005728D02*
X013134Y005728D01*
X013134Y005569D02*
X000660Y005569D01*
X000660Y005411D02*
X013134Y005411D01*
X013134Y005252D02*
X000660Y005252D01*
X000660Y005094D02*
X013162Y005094D01*
X013899Y005094D02*
X014440Y005094D01*
X014413Y005252D02*
X013927Y005252D01*
X013927Y005411D02*
X014413Y005411D01*
X014413Y005569D02*
X013927Y005569D01*
X013927Y005728D02*
X014413Y005728D01*
X014413Y005718D02*
X014791Y005718D01*
X014791Y006352D01*
X014570Y006352D01*
X014524Y006340D01*
X014483Y006316D01*
X014449Y006283D01*
X014426Y006242D01*
X014413Y006196D01*
X014413Y005718D01*
X014413Y005886D02*
X013927Y005886D01*
X013927Y006045D02*
X014413Y006045D01*
X014415Y006203D02*
X013927Y006203D01*
X013936Y006323D02*
X013936Y006680D01*
X013936Y006680D01*
X013936Y006680D01*
X013936Y006323D01*
X013936Y006362D02*
X013936Y006362D01*
X013936Y006520D02*
X013936Y006520D01*
X013936Y006679D02*
X013936Y006679D01*
X014791Y006203D02*
X014868Y006203D01*
X014868Y006045D02*
X014791Y006045D01*
X014791Y005886D02*
X014868Y005886D01*
X014868Y005728D02*
X014791Y005728D01*
X014791Y005569D02*
X014868Y005569D01*
X014868Y005411D02*
X014791Y005411D01*
X014791Y005252D02*
X014868Y005252D01*
X014868Y005094D02*
X014791Y005094D01*
X012076Y003741D02*
X012076Y003286D01*
X012076Y003741D01*
X012076Y003741D01*
X011820Y003741D01*
X011820Y003741D01*
X011827Y003741D01*
X012076Y003741D01*
X012076Y003741D01*
X012076Y003667D02*
X012076Y003667D01*
X012076Y003509D02*
X012076Y003509D01*
X012076Y003350D02*
X012076Y003350D01*
X012095Y003192D02*
X011515Y003192D01*
X011515Y003033D02*
X012095Y003033D01*
X012095Y002875D02*
X011515Y002875D01*
X011515Y002716D02*
X012095Y002716D01*
X012095Y002558D02*
X011479Y002558D01*
X011095Y002890D02*
X010621Y002890D01*
X010371Y003140D01*
X010015Y003140D01*
X010015Y003306D01*
X010133Y003306D01*
X010146Y003298D01*
X010192Y003286D01*
X010284Y003286D01*
X010284Y003741D01*
X010284Y004196D01*
X010284Y003741D01*
X010284Y003741D01*
X010540Y003741D01*
X010540Y004196D01*
X010540Y003741D01*
X010540Y003741D01*
X010540Y003741D01*
X010292Y003741D01*
X010284Y003741D01*
X010284Y003741D01*
X010284Y003741D01*
X010284Y003286D01*
X010377Y003286D01*
X010412Y003295D01*
X010448Y003286D01*
X010540Y003286D01*
X010540Y003741D01*
X010540Y003741D01*
X010540Y003286D01*
X010632Y003286D01*
X010678Y003298D01*
X010692Y003306D01*
X011095Y003306D01*
X011095Y002890D01*
X011095Y003033D02*
X010478Y003033D01*
X010540Y003350D02*
X010540Y003350D01*
X010540Y003509D02*
X010540Y003509D01*
X010540Y003667D02*
X010540Y003667D01*
X010540Y003826D02*
X010540Y003826D01*
X010540Y003984D02*
X010540Y003984D01*
X010540Y004143D02*
X010540Y004143D01*
X010284Y004143D02*
X010284Y004143D01*
X010284Y003984D02*
X010284Y003984D01*
X010284Y003826D02*
X010284Y003826D01*
X010284Y003667D02*
X010284Y003667D01*
X010284Y003509D02*
X010284Y003509D01*
X010284Y003350D02*
X010284Y003350D01*
X010015Y003192D02*
X011095Y003192D01*
X011820Y003286D02*
X011820Y003741D01*
X011820Y003286D01*
X011820Y003350D02*
X011820Y003350D01*
X011820Y003509D02*
X011820Y003509D01*
X011820Y003667D02*
X011820Y003667D01*
X011820Y003741D02*
X011820Y003741D01*
X010879Y004301D02*
X004481Y004301D01*
X004820Y004143D02*
X004820Y004143D01*
X004820Y003984D02*
X004820Y003984D01*
X004820Y003826D02*
X004820Y003826D01*
X004820Y003741D02*
X004820Y003286D01*
X004820Y003741D01*
X004820Y003741D01*
X004820Y003667D02*
X004820Y003667D01*
X004820Y003509D02*
X004820Y003509D01*
X004820Y003350D02*
X004820Y003350D01*
X005076Y003350D02*
X005076Y003350D01*
X005076Y003509D02*
X005076Y003509D01*
X005076Y003667D02*
X005076Y003667D01*
X005076Y003826D02*
X005076Y003826D01*
X005076Y003984D02*
X005076Y003984D01*
X005076Y004143D02*
X005076Y004143D01*
X005755Y004143D02*
X006105Y004143D01*
X006044Y003984D02*
X005816Y003984D01*
X005816Y003826D02*
X006044Y003826D01*
X006044Y003667D02*
X005816Y003667D01*
X005816Y003509D02*
X006044Y003509D01*
X006093Y003350D02*
X005767Y003350D01*
X005765Y003192D02*
X006345Y003192D01*
X006765Y003192D02*
X007095Y003192D01*
X007095Y003140D02*
X006989Y003140D01*
X006816Y002966D01*
X006767Y003015D01*
X006765Y003017D01*
X006765Y003286D01*
X006784Y003286D01*
X006784Y003741D01*
X006784Y004196D01*
X006784Y003741D01*
X006784Y003741D01*
X007040Y003741D01*
X007040Y004196D01*
X007040Y003741D01*
X007040Y003741D01*
X007040Y003741D01*
X007033Y003741D01*
X006784Y003741D01*
X006784Y003741D01*
X006784Y003741D01*
X006784Y003286D01*
X006877Y003286D01*
X006912Y003295D01*
X006948Y003286D01*
X007040Y003286D01*
X007040Y003741D01*
X007040Y003741D01*
X007040Y003286D01*
X007095Y003286D01*
X007095Y003140D01*
X007040Y003350D02*
X007040Y003350D01*
X007040Y003509D02*
X007040Y003509D01*
X007040Y003667D02*
X007040Y003667D01*
X007040Y003826D02*
X007040Y003826D01*
X007040Y003984D02*
X007040Y003984D01*
X007040Y004143D02*
X007040Y004143D01*
X006784Y004143D02*
X006784Y004143D01*
X006784Y003984D02*
X006784Y003984D01*
X006784Y003826D02*
X006784Y003826D01*
X006784Y003667D02*
X006784Y003667D01*
X006784Y003509D02*
X006784Y003509D01*
X006784Y003350D02*
X006784Y003350D01*
X006765Y003033D02*
X006882Y003033D01*
X006470Y002319D02*
X006470Y002041D01*
X006371Y002140D01*
X005989Y002140D01*
X005720Y001871D01*
X005720Y001517D01*
X005593Y001390D01*
X005541Y001390D01*
X005640Y001489D01*
X005640Y001871D01*
X005371Y002140D01*
X004989Y002140D01*
X004739Y001890D01*
X003265Y001890D01*
X003265Y003286D01*
X003284Y003286D01*
X003284Y003741D01*
X003540Y003741D01*
X003540Y003741D01*
X003292Y003741D01*
X003284Y003741D01*
X003284Y003741D01*
X003284Y003741D01*
X003284Y003286D01*
X003377Y003286D01*
X003412Y003295D01*
X003448Y003286D01*
X003540Y003286D01*
X003540Y003741D01*
X003540Y003741D01*
X003540Y003286D01*
X003632Y003286D01*
X003678Y003298D01*
X003692Y003306D01*
X003845Y003306D01*
X003845Y002593D01*
X003968Y002470D01*
X004739Y002470D01*
X004989Y002220D01*
X005371Y002220D01*
X005640Y002489D01*
X005640Y002720D01*
X005720Y002720D01*
X005720Y002489D01*
X005989Y002220D01*
X006371Y002220D01*
X006470Y002319D01*
X006470Y002241D02*
X006391Y002241D01*
X006429Y002082D02*
X006470Y002082D01*
X005969Y002241D02*
X005391Y002241D01*
X005429Y002082D02*
X005931Y002082D01*
X005773Y001924D02*
X005587Y001924D01*
X005640Y001765D02*
X005720Y001765D01*
X005720Y001607D02*
X005640Y001607D01*
X005651Y001448D02*
X005599Y001448D01*
X005928Y001131D02*
X009432Y001131D01*
X009591Y000973D02*
X005769Y000973D01*
X006440Y001290D02*
X006920Y001290D01*
X006761Y001448D02*
X006599Y001448D01*
X007440Y001290D02*
X007920Y001290D01*
X007761Y001448D02*
X007599Y001448D01*
X007890Y002082D02*
X007931Y002082D01*
X007969Y002241D02*
X007890Y002241D01*
X008391Y002241D02*
X008969Y002241D01*
X008931Y002082D02*
X008429Y002082D01*
X008587Y001924D02*
X008773Y001924D01*
X008720Y001765D02*
X008640Y001765D01*
X008640Y001607D02*
X008720Y001607D01*
X008761Y001448D02*
X008599Y001448D01*
X008440Y001290D02*
X008920Y001290D01*
X009640Y001607D02*
X009720Y001607D01*
X009720Y001765D02*
X009640Y001765D01*
X009587Y001924D02*
X009773Y001924D01*
X009931Y002082D02*
X009429Y002082D01*
X009391Y002241D02*
X009969Y002241D01*
X009810Y002399D02*
X009550Y002399D01*
X009640Y002558D02*
X009720Y002558D01*
X009720Y002716D02*
X009640Y002716D01*
X009595Y003192D02*
X009015Y003192D01*
X009267Y003350D02*
X009593Y003350D01*
X009544Y003509D02*
X009316Y003509D01*
X009316Y003667D02*
X009544Y003667D01*
X009544Y003826D02*
X009316Y003826D01*
X009316Y003984D02*
X009544Y003984D01*
X009605Y004143D02*
X009255Y004143D01*
X008576Y004143D02*
X008576Y004143D01*
X008576Y003984D02*
X008576Y003984D01*
X008576Y003826D02*
X008576Y003826D01*
X008576Y003667D02*
X008576Y003667D01*
X008576Y003509D02*
X008576Y003509D01*
X008576Y003350D02*
X008576Y003350D01*
X008595Y003192D02*
X008015Y003192D01*
X008320Y003286D02*
X008320Y003741D01*
X008320Y003286D01*
X008320Y003350D02*
X008320Y003350D01*
X008320Y003509D02*
X008320Y003509D01*
X008320Y003667D02*
X008320Y003667D01*
X008320Y003741D02*
X008320Y003741D01*
X008320Y003826D02*
X008320Y003826D01*
X008320Y003984D02*
X008320Y003984D01*
X008320Y004143D02*
X008320Y004143D01*
X008640Y002716D02*
X008720Y002716D01*
X008720Y002558D02*
X008640Y002558D01*
X008550Y002399D02*
X008810Y002399D01*
X009709Y001448D02*
X009761Y001448D01*
X010429Y002082D02*
X012095Y002082D01*
X012095Y001924D02*
X010587Y001924D01*
X010391Y002241D02*
X012095Y002241D01*
X012095Y002399D02*
X010550Y002399D01*
X008218Y006015D02*
X007312Y006015D01*
X007481Y006184D01*
X007657Y006184D01*
X007670Y006177D01*
X007716Y006164D01*
X007808Y006164D01*
X007900Y006164D01*
X007946Y006177D01*
X007959Y006184D01*
X008387Y006184D01*
X008218Y006015D01*
X008248Y006045D02*
X007341Y006045D01*
X007808Y006164D02*
X007808Y006619D01*
X007808Y006164D01*
X007808Y006203D02*
X007808Y006203D01*
X007808Y006362D02*
X007808Y006362D01*
X007808Y006520D02*
X007808Y006520D01*
X007808Y006619D02*
X007808Y006619D01*
X005345Y003192D02*
X004265Y003192D01*
X004265Y003033D02*
X004882Y003033D01*
X004810Y002399D02*
X003265Y002399D01*
X003265Y002241D02*
X004969Y002241D01*
X004931Y002082D02*
X003265Y002082D01*
X003265Y001924D02*
X004773Y001924D01*
X005550Y002399D02*
X005810Y002399D01*
X005720Y002558D02*
X005640Y002558D01*
X005640Y002716D02*
X005720Y002716D01*
X003881Y002558D02*
X003265Y002558D01*
X003265Y002716D02*
X003845Y002716D01*
X003845Y002875D02*
X003265Y002875D01*
X003265Y003033D02*
X003845Y003033D01*
X003845Y003192D02*
X003265Y003192D01*
X003284Y003350D02*
X003284Y003350D01*
X003284Y003509D02*
X003284Y003509D01*
X003284Y003667D02*
X003284Y003667D01*
X003540Y003667D02*
X003540Y003667D01*
X003540Y003509D02*
X003540Y003509D01*
X003540Y003350D02*
X003540Y003350D01*
X002345Y003350D02*
X000660Y003350D01*
X000660Y003192D02*
X002345Y003192D01*
X002345Y003033D02*
X000660Y003033D01*
X000660Y002875D02*
X002345Y002875D01*
X002345Y002716D02*
X000660Y002716D01*
X000660Y002558D02*
X002345Y002558D01*
X002345Y002399D02*
X000660Y002399D01*
X000660Y002241D02*
X002345Y002241D01*
X002345Y002082D02*
X000660Y002082D01*
X000660Y001924D02*
X002345Y001924D01*
X002345Y001765D02*
X000660Y001765D01*
X000660Y001607D02*
X002345Y001607D01*
X002345Y001448D02*
X000660Y001448D01*
X000660Y001290D02*
X002345Y001290D01*
X002345Y001131D02*
X000660Y001131D01*
X000660Y000973D02*
X002466Y000973D01*
X002345Y003509D02*
X000660Y003509D01*
X000660Y003667D02*
X002345Y003667D01*
X002345Y003826D02*
X000660Y003826D01*
X000660Y003984D02*
X002345Y003984D01*
X002346Y004143D02*
X000660Y004143D01*
X000660Y004301D02*
X002504Y004301D01*
X002211Y005728D02*
X000660Y005728D01*
X000660Y005886D02*
X002052Y005886D01*
X001894Y006045D02*
X000660Y006045D01*
X000660Y006203D02*
X001735Y006203D01*
X001577Y006362D02*
X000660Y006362D01*
X000660Y006520D02*
X001418Y006520D01*
X001260Y006679D02*
X000660Y006679D01*
X000660Y006837D02*
X001101Y006837D01*
X000943Y006996D02*
X000660Y006996D01*
X000660Y007154D02*
X000845Y007154D01*
X000845Y007313D02*
X000660Y007313D01*
X000660Y007471D02*
X000845Y007471D01*
X000845Y007630D02*
X000660Y007630D01*
X000660Y007788D02*
X000845Y007788D01*
X000845Y007947D02*
X000660Y007947D01*
X000660Y008105D02*
X000845Y008105D01*
X000845Y008264D02*
X000660Y008264D01*
X000660Y008422D02*
X000845Y008422D01*
X000845Y008581D02*
X000660Y008581D01*
X000660Y008739D02*
X000942Y008739D01*
X005513Y013019D02*
X006722Y013019D01*
X006563Y012860D02*
X005672Y012860D01*
X005830Y012702D02*
X005848Y012702D01*
X006902Y011605D02*
X006942Y011564D01*
X007096Y011500D01*
X007264Y011500D01*
X007418Y011564D01*
X007536Y011682D01*
X007600Y011836D01*
X007600Y012303D01*
X007740Y012443D01*
X007740Y012180D01*
X008180Y012180D01*
X008620Y012180D01*
X008620Y012475D01*
X008609Y012543D01*
X008768Y012543D01*
X008760Y012524D02*
X008760Y011836D01*
X008824Y011682D01*
X008866Y011640D01*
X008843Y011640D01*
X008720Y011517D01*
X008305Y011102D01*
X008017Y011390D01*
X006687Y011390D01*
X006902Y011605D01*
X006914Y011592D02*
X006889Y011592D01*
X006731Y011434D02*
X008637Y011434D01*
X008795Y011592D02*
X008474Y011592D01*
X008467Y011584D02*
X008516Y011633D01*
X008556Y011689D01*
X008588Y011751D01*
X008609Y011817D01*
X008620Y011885D01*
X008620Y012180D01*
X008180Y012180D01*
X008180Y012180D01*
X008180Y011480D01*
X008215Y011480D01*
X008283Y011491D01*
X008349Y011512D01*
X008411Y011544D01*
X008467Y011584D01*
X008587Y011751D02*
X008796Y011751D01*
X008760Y011909D02*
X008620Y011909D01*
X008620Y012068D02*
X008760Y012068D01*
X008760Y012226D02*
X008620Y012226D01*
X008620Y012385D02*
X008760Y012385D01*
X008760Y012524D02*
X008824Y012678D01*
X008866Y012720D01*
X008520Y012720D01*
X008556Y012671D01*
X008588Y012609D01*
X008609Y012543D01*
X008534Y012702D02*
X008848Y012702D01*
X008180Y012180D02*
X008180Y012180D01*
X008180Y012180D01*
X008180Y011480D01*
X008145Y011480D01*
X008077Y011491D01*
X008011Y011512D01*
X007949Y011544D01*
X007893Y011584D01*
X007844Y011633D01*
X007804Y011689D01*
X007772Y011751D01*
X007751Y011817D01*
X007740Y011885D01*
X007740Y012180D01*
X008180Y012180D01*
X008180Y012068D02*
X008180Y012068D01*
X008180Y011909D02*
X008180Y011909D01*
X008180Y011751D02*
X008180Y011751D01*
X008180Y011592D02*
X008180Y011592D01*
X007886Y011592D02*
X007446Y011592D01*
X007564Y011751D02*
X007773Y011751D01*
X007740Y011909D02*
X007600Y011909D01*
X007600Y012068D02*
X007740Y012068D01*
X007740Y012226D02*
X007600Y012226D01*
X007682Y012385D02*
X007740Y012385D01*
X008132Y011275D02*
X008478Y011275D01*
X008320Y011117D02*
X008290Y011117D01*
X007863Y010950D02*
X007734Y010950D01*
X007694Y010910D01*
X007671Y010934D01*
X007629Y010958D01*
X007584Y010970D01*
X007430Y010970D01*
X007430Y010390D01*
X007430Y010390D01*
X007430Y010970D01*
X007276Y010970D01*
X007231Y010958D01*
X007189Y010934D01*
X007166Y010910D01*
X007126Y010950D01*
X006957Y010950D01*
X006937Y010970D01*
X007843Y010970D01*
X007863Y010950D01*
X007855Y010958D02*
X007628Y010958D01*
X007430Y010958D02*
X007430Y010958D01*
X007430Y010800D02*
X007430Y010800D01*
X007430Y010641D02*
X007430Y010641D01*
X007430Y010483D02*
X007430Y010483D01*
X007232Y010958D02*
X006949Y010958D01*
X000660Y013653D02*
X015570Y013653D01*
X015570Y013811D02*
X000660Y013811D01*
X000660Y013970D02*
X015570Y013970D01*
X015570Y014128D02*
X000660Y014128D01*
X000660Y014287D02*
X015570Y014287D01*
X015570Y014445D02*
X000660Y014445D01*
X000660Y014604D02*
X015570Y014604D01*
D18*
X015055Y013180D02*
X007180Y013180D01*
X006180Y012180D01*
X005680Y012555D02*
X005680Y011430D01*
X006430Y011430D01*
X007180Y012180D01*
X007930Y012930D01*
X010930Y012930D01*
X010930Y011680D01*
X012930Y011680D01*
X013430Y011180D01*
X013430Y010390D01*
X013430Y010055D01*
X013680Y009805D01*
X014430Y009805D01*
X014680Y009555D01*
X014680Y009436D01*
X015055Y008305D02*
X015055Y013180D01*
X012930Y011305D02*
X011055Y011305D01*
X010930Y011680D02*
X010055Y010805D01*
X009930Y010930D01*
X008930Y010930D01*
X008930Y010390D01*
X008430Y010390D02*
X008430Y010680D01*
X008305Y010805D01*
X008930Y011430D01*
X009430Y011430D01*
X010180Y012180D01*
X010055Y010805D02*
X010430Y010430D01*
X010430Y010390D01*
X009930Y009805D02*
X011180Y009805D01*
X011430Y010055D01*
X011430Y010390D01*
X012430Y010390D02*
X012430Y009555D01*
X009180Y009555D01*
X009180Y009680D01*
X009180Y009555D02*
X007430Y009555D01*
X007930Y010055D01*
X007930Y010390D01*
X008305Y010805D02*
X007930Y011180D01*
X003930Y011180D01*
X003930Y010390D01*
X004430Y010390D02*
X004430Y009805D01*
X005430Y009805D01*
X005680Y010055D01*
X005555Y010180D01*
X005430Y010180D01*
X005680Y010055D02*
X005930Y010305D01*
X005930Y010390D01*
X005430Y010930D02*
X006680Y010930D01*
X006930Y010680D01*
X006930Y010390D01*
X007430Y009555D02*
X003430Y009555D01*
X003430Y010390D01*
X002430Y010390D02*
X002430Y012180D01*
X005180Y012180D01*
X005680Y012555D02*
X005305Y012930D01*
X001430Y012930D01*
X001430Y010390D01*
X001055Y008555D02*
X002680Y008555D01*
X002930Y008305D01*
X002930Y007970D01*
X002430Y007970D02*
X002430Y007680D01*
X002680Y007430D01*
X003555Y007430D01*
X003555Y006680D01*
X003540Y006619D01*
X003305Y006680D02*
X003284Y006619D01*
X003305Y006680D02*
X003305Y007180D01*
X002430Y007180D01*
X001930Y007680D01*
X001930Y007970D01*
X001430Y007970D02*
X001430Y007180D01*
X002430Y006180D01*
X003055Y006180D01*
X003055Y006555D01*
X003028Y006619D01*
X002805Y006680D02*
X002773Y006619D01*
X002805Y006680D02*
X002555Y006930D01*
X002180Y006930D01*
X002305Y005930D02*
X001055Y007180D01*
X001055Y008555D01*
X003430Y008680D02*
X003430Y007970D01*
X003930Y007970D02*
X003930Y008680D01*
X003805Y009055D02*
X003430Y008680D01*
X003805Y009055D02*
X005305Y009055D01*
X005305Y007555D01*
X005180Y007430D01*
X004805Y007430D01*
X004805Y006680D01*
X004820Y006619D01*
X005055Y006680D02*
X005076Y006619D01*
X005055Y006680D02*
X005055Y007180D01*
X005430Y007180D01*
X005305Y006680D02*
X005332Y006619D01*
X005305Y006680D02*
X005555Y006680D01*
X005587Y006619D01*
X005555Y006555D01*
X005555Y005805D01*
X008305Y005805D01*
X008680Y006180D01*
X012305Y006180D01*
X012305Y006555D01*
X012332Y006619D01*
X012305Y006680D01*
X012555Y006680D01*
X012587Y006619D01*
X012555Y006680D02*
X013424Y006680D01*
X013430Y006680D01*
X015055Y008305D01*
X013430Y006680D02*
X013430Y005680D01*
X013530Y005680D01*
X012680Y004180D02*
X012805Y004055D01*
X012805Y001180D01*
X009680Y001180D01*
X009180Y001680D01*
X008180Y001680D02*
X007680Y001680D01*
X007680Y002805D01*
X007805Y002930D01*
X007805Y003680D01*
X007808Y003741D01*
X007805Y003805D01*
X008055Y003805D01*
X008064Y003741D01*
X007552Y003741D02*
X007555Y003805D01*
X007305Y003805D01*
X007296Y003741D01*
X007305Y003680D01*
X007305Y002680D01*
X007180Y002680D01*
X006680Y002805D02*
X006680Y001680D01*
X007180Y001680D01*
X006180Y001680D02*
X005680Y001180D01*
X002555Y001180D01*
X002555Y004055D01*
X002680Y004180D01*
X004305Y004180D01*
X004305Y003805D01*
X004308Y003741D01*
X004305Y003805D02*
X004555Y003805D01*
X004564Y003741D01*
X004055Y003680D02*
X004052Y003741D01*
X004055Y003805D01*
X003805Y003805D01*
X003796Y003741D01*
X004055Y003680D02*
X004055Y002680D01*
X005180Y002680D01*
X005555Y002930D02*
X005930Y002930D01*
X006180Y002680D01*
X006555Y002930D02*
X006680Y002805D01*
X006555Y002930D02*
X006555Y003680D01*
X006528Y003741D01*
X006555Y003805D01*
X006305Y003805D01*
X006273Y003741D01*
X005587Y003741D02*
X005555Y003680D01*
X005555Y002930D01*
X005587Y003741D02*
X005555Y003805D01*
X005305Y003805D01*
X005332Y003741D01*
X005180Y001680D02*
X003055Y001680D01*
X003055Y003680D01*
X003028Y003741D01*
X003055Y003805D01*
X002805Y003805D01*
X002773Y003741D01*
X002305Y005930D02*
X004555Y005930D01*
X004555Y006555D01*
X004564Y006619D01*
X004055Y006680D02*
X004052Y006619D01*
X004055Y006680D02*
X004055Y007180D01*
X004430Y007180D01*
X004055Y006680D02*
X003805Y006680D01*
X003796Y006619D01*
X005555Y006680D02*
X006305Y006680D01*
X006273Y006619D01*
X006528Y006619D02*
X006555Y006680D01*
X006555Y007180D01*
X006430Y007180D01*
X005930Y007680D01*
X005930Y007970D01*
X006430Y007970D02*
X006430Y007680D01*
X006680Y007430D01*
X006805Y007430D01*
X006805Y006680D01*
X006784Y006619D01*
X007040Y006619D02*
X007055Y006680D01*
X007055Y007930D01*
X006930Y007930D01*
X006930Y007970D01*
X007430Y007970D02*
X007430Y007680D01*
X007930Y007180D01*
X008055Y007180D01*
X008055Y006680D01*
X008064Y006619D01*
X008305Y006680D02*
X008320Y006619D01*
X008305Y006680D02*
X008305Y007430D01*
X008180Y007430D01*
X007930Y007680D01*
X007930Y007970D01*
X008430Y007970D02*
X008430Y007930D01*
X008555Y007930D01*
X008555Y006680D01*
X008576Y006619D01*
X008805Y006680D02*
X008832Y006619D01*
X008805Y006680D02*
X009055Y006680D01*
X009087Y006619D01*
X009055Y006555D01*
X008680Y006180D01*
X009055Y006680D02*
X009805Y006680D01*
X009773Y006619D01*
X010028Y006619D02*
X010055Y006680D01*
X010055Y007930D01*
X010430Y007930D01*
X010430Y007970D01*
X010930Y007970D02*
X010930Y007680D01*
X010680Y007430D01*
X010305Y007430D01*
X010305Y006680D01*
X010284Y006619D01*
X010796Y006619D02*
X010805Y006680D01*
X010930Y006680D01*
X010930Y007180D01*
X010930Y006680D02*
X011055Y006680D01*
X011052Y006619D01*
X011555Y006680D02*
X011564Y006619D01*
X011555Y006680D02*
X011555Y007430D01*
X011680Y007430D01*
X011930Y007680D01*
X011930Y007970D01*
X012430Y007970D02*
X012430Y007680D01*
X011930Y007180D01*
X011805Y007180D01*
X011805Y006680D01*
X011820Y006619D01*
X012055Y006680D02*
X012076Y006619D01*
X012055Y006680D02*
X012055Y006930D01*
X012555Y007430D01*
X012680Y007430D01*
X012930Y007680D01*
X012930Y007970D01*
X012930Y010390D02*
X012930Y011305D01*
X009930Y009805D02*
X009430Y010305D01*
X009430Y010390D01*
X005430Y010930D02*
X004930Y010430D01*
X004930Y010390D01*
X007305Y006680D02*
X007296Y006619D01*
X007305Y006680D02*
X007555Y006680D01*
X007552Y006619D01*
X007555Y006555D01*
X007180Y006180D01*
X005930Y006180D01*
X008805Y003805D02*
X008832Y003741D01*
X008805Y003680D01*
X008805Y002930D01*
X008430Y002930D01*
X008180Y002680D01*
X009180Y002680D02*
X009430Y002930D01*
X009805Y002930D01*
X009805Y003680D01*
X009773Y003741D01*
X009805Y003805D01*
X010055Y003805D01*
X010028Y003741D01*
X010796Y003741D02*
X010805Y003805D01*
X011055Y003805D01*
X011052Y003741D01*
X011055Y003805D02*
X011055Y004180D01*
X012680Y004180D01*
X012555Y003805D02*
X012305Y003805D01*
X012332Y003741D01*
X012305Y003680D01*
X012305Y001680D01*
X010180Y001680D01*
X010180Y002680D02*
X011305Y002680D01*
X011305Y003680D01*
X011308Y003741D01*
X011305Y003805D01*
X011555Y003805D01*
X011564Y003741D01*
X012555Y003805D02*
X012587Y003741D01*
X009087Y003741D02*
X009055Y003805D01*
X008805Y003805D01*
D19*
X005930Y006180D03*
X005430Y007180D03*
X004430Y007180D03*
X003930Y008680D03*
X005430Y010180D03*
X002180Y006930D03*
X009180Y009680D03*
X011055Y011305D03*
X010930Y007180D03*
M02*
