G75*
G70*
%OFA0B0*%
%FSLAX24Y24*%
%IPPOS*%
%LPD*%
%AMOC8*
5,1,8,0,0,1.08239X$1,22.5*
%
%ADD10C,0.0520*%
%ADD11OC8,0.0600*%
%ADD12C,0.0160*%
%ADD13C,0.0100*%
%ADD14C,0.0400*%
D10*
X005180Y011920D02*
X005180Y012440D01*
X006180Y012440D02*
X006180Y011920D01*
X007180Y011920D02*
X007180Y012440D01*
X008180Y012440D02*
X008180Y011920D01*
X009180Y011920D02*
X009180Y012440D01*
X010180Y012440D02*
X010180Y011920D01*
D11*
X010180Y002680D03*
X009180Y002680D03*
X008180Y002680D03*
X008180Y001680D03*
X009180Y001680D03*
X010180Y001680D03*
X007180Y001680D03*
X006180Y001680D03*
X005180Y001680D03*
X005180Y002680D03*
X006180Y002680D03*
X007180Y002680D03*
D12*
X000660Y000660D02*
X000660Y014696D01*
X015570Y014696D01*
X015570Y000660D01*
X000660Y000660D01*
X000660Y000814D02*
X015570Y000814D01*
X015570Y000973D02*
X000660Y000973D01*
X000660Y001131D02*
X015570Y001131D01*
X015570Y001290D02*
X010440Y001290D01*
X010371Y001220D02*
X010640Y001489D01*
X010640Y001871D01*
X010371Y002140D01*
X009989Y002140D01*
X009720Y001871D01*
X009720Y001489D01*
X009989Y001220D01*
X010371Y001220D01*
X010599Y001448D02*
X015570Y001448D01*
X015570Y001607D02*
X010640Y001607D01*
X010640Y001765D02*
X015570Y001765D01*
X015570Y001924D02*
X010587Y001924D01*
X010429Y002082D02*
X015570Y002082D01*
X015570Y002241D02*
X010391Y002241D01*
X010371Y002220D02*
X010640Y002489D01*
X010640Y002871D01*
X010371Y003140D01*
X009989Y003140D01*
X009720Y002871D01*
X009720Y002489D01*
X009989Y002220D01*
X010371Y002220D01*
X010550Y002399D02*
X015570Y002399D01*
X015570Y002558D02*
X010640Y002558D01*
X010640Y002716D02*
X015570Y002716D01*
X015570Y002875D02*
X010636Y002875D01*
X010478Y003033D02*
X015570Y003033D01*
X015570Y003192D02*
X000660Y003192D01*
X000660Y003350D02*
X015570Y003350D01*
X015570Y003509D02*
X000660Y003509D01*
X000660Y003667D02*
X015570Y003667D01*
X015570Y003826D02*
X000660Y003826D01*
X000660Y003984D02*
X015570Y003984D01*
X015570Y004143D02*
X000660Y004143D01*
X000660Y004301D02*
X015570Y004301D01*
X015570Y004460D02*
X000660Y004460D01*
X000660Y004618D02*
X015570Y004618D01*
X015570Y004777D02*
X000660Y004777D01*
X000660Y004935D02*
X015570Y004935D01*
X015570Y005094D02*
X000660Y005094D01*
X000660Y005252D02*
X015570Y005252D01*
X015570Y005411D02*
X000660Y005411D01*
X000660Y005569D02*
X015570Y005569D01*
X015570Y005728D02*
X000660Y005728D01*
X000660Y005886D02*
X005715Y005886D01*
X005726Y005875D02*
X005625Y005976D01*
X005570Y006108D01*
X005570Y006243D01*
X005343Y006470D01*
X005220Y006593D01*
X004843Y006970D01*
X004729Y006970D01*
X004634Y006875D01*
X004502Y006820D01*
X004358Y006820D01*
X004226Y006875D01*
X004125Y006976D01*
X004070Y007108D01*
X004070Y007252D01*
X004125Y007384D01*
X004226Y007485D01*
X004358Y007540D01*
X004502Y007540D01*
X004634Y007485D01*
X004729Y007390D01*
X004923Y007390D01*
X003993Y008320D01*
X003858Y008320D01*
X003726Y008375D01*
X003625Y008476D01*
X003570Y008608D01*
X003570Y008752D01*
X003625Y008884D01*
X003726Y008985D01*
X003858Y009040D01*
X004002Y009040D01*
X004134Y008985D01*
X004235Y008884D01*
X004290Y008752D01*
X004290Y008617D01*
X005367Y007540D01*
X005502Y007540D01*
X005595Y007501D01*
X005595Y009859D01*
X005502Y009820D01*
X005358Y009820D01*
X005226Y009875D01*
X005125Y009976D01*
X005070Y010108D01*
X005070Y010252D01*
X005125Y010384D01*
X005226Y010485D01*
X005358Y010540D01*
X005493Y010540D01*
X005595Y010642D01*
X005718Y010765D01*
X006769Y011816D01*
X006760Y011836D01*
X006760Y012524D01*
X006824Y012678D01*
X006942Y012796D01*
X007096Y012860D01*
X007264Y012860D01*
X007418Y012796D01*
X007536Y012678D01*
X007600Y012524D01*
X007600Y011836D01*
X007536Y011682D01*
X007418Y011564D01*
X007264Y011500D01*
X007096Y011500D01*
X007061Y011514D01*
X006015Y010468D01*
X006015Y006968D01*
X005892Y006845D01*
X005727Y006680D01*
X005867Y006540D01*
X006002Y006540D01*
X006134Y006485D01*
X006229Y006390D01*
X009843Y006390D01*
X010570Y007117D01*
X010570Y007252D01*
X010625Y007384D01*
X010726Y007485D01*
X010858Y007540D01*
X011002Y007540D01*
X011134Y007485D01*
X011235Y007384D01*
X011290Y007252D01*
X011290Y007108D01*
X011235Y006976D01*
X011134Y006875D01*
X011002Y006820D01*
X010867Y006820D01*
X010140Y006093D01*
X010017Y005970D01*
X006229Y005970D01*
X006134Y005875D01*
X006002Y005820D01*
X005858Y005820D01*
X005726Y005875D01*
X005596Y006045D02*
X000660Y006045D01*
X000660Y006203D02*
X005570Y006203D01*
X005452Y006362D02*
X000660Y006362D01*
X000660Y006520D02*
X005293Y006520D01*
X005135Y006679D02*
X002438Y006679D01*
X002485Y006726D02*
X002384Y006625D01*
X002252Y006570D01*
X002108Y006570D01*
X001976Y006625D01*
X001875Y006726D01*
X001820Y006858D01*
X001820Y007002D01*
X001875Y007134D01*
X001970Y007229D01*
X001970Y008017D01*
X005769Y011816D01*
X005760Y011836D01*
X005760Y012524D01*
X005824Y012678D01*
X005942Y012796D01*
X006096Y012860D01*
X006264Y012860D01*
X006418Y012796D01*
X006536Y012678D01*
X006600Y012524D01*
X006600Y011836D01*
X006536Y011682D01*
X006418Y011564D01*
X006264Y011500D01*
X006096Y011500D01*
X006061Y011514D01*
X002390Y007843D01*
X002390Y007229D01*
X002485Y007134D01*
X002540Y007002D01*
X002540Y006858D01*
X002485Y006726D01*
X002531Y006837D02*
X004317Y006837D01*
X004543Y006837D02*
X004976Y006837D01*
X004842Y007471D02*
X004648Y007471D01*
X004684Y007630D02*
X002390Y007630D01*
X002390Y007788D02*
X004525Y007788D01*
X004367Y007947D02*
X002493Y007947D01*
X002652Y008105D02*
X004208Y008105D01*
X004050Y008264D02*
X002810Y008264D01*
X002969Y008422D02*
X003679Y008422D01*
X003582Y008581D02*
X003127Y008581D01*
X003286Y008739D02*
X003570Y008739D01*
X003638Y008898D02*
X003444Y008898D01*
X003603Y009056D02*
X005595Y009056D01*
X005595Y008898D02*
X004222Y008898D01*
X004290Y008739D02*
X005595Y008739D01*
X005595Y008581D02*
X004326Y008581D01*
X004485Y008422D02*
X005595Y008422D01*
X005595Y008264D02*
X004643Y008264D01*
X004802Y008105D02*
X005595Y008105D01*
X005595Y007947D02*
X004960Y007947D01*
X005119Y007788D02*
X005595Y007788D01*
X005595Y007630D02*
X005277Y007630D01*
X006015Y007630D02*
X015570Y007630D01*
X015570Y007788D02*
X006015Y007788D01*
X006015Y007947D02*
X015570Y007947D01*
X015570Y008105D02*
X006015Y008105D01*
X006015Y008264D02*
X015570Y008264D01*
X015570Y008422D02*
X006015Y008422D01*
X006015Y008581D02*
X015570Y008581D01*
X015570Y008739D02*
X006015Y008739D01*
X006015Y008898D02*
X015570Y008898D01*
X015570Y009056D02*
X006015Y009056D01*
X006015Y009215D02*
X015570Y009215D01*
X015570Y009373D02*
X009380Y009373D01*
X009384Y009375D02*
X009485Y009476D01*
X009540Y009608D01*
X009540Y009752D01*
X009485Y009884D01*
X009390Y009979D01*
X009390Y011552D01*
X009418Y011564D01*
X009536Y011682D01*
X009600Y011836D01*
X009600Y012524D01*
X009536Y012678D01*
X009418Y012796D01*
X009264Y012860D01*
X009096Y012860D01*
X008942Y012796D01*
X008824Y012678D01*
X008760Y012524D01*
X008760Y011836D01*
X008824Y011682D01*
X008942Y011564D01*
X008970Y011552D01*
X008970Y009979D01*
X008875Y009884D01*
X008820Y009752D01*
X008820Y009608D01*
X008875Y009476D01*
X008976Y009375D01*
X009108Y009320D01*
X009252Y009320D01*
X009384Y009375D01*
X009508Y009532D02*
X015570Y009532D01*
X015570Y009690D02*
X009540Y009690D01*
X009500Y009849D02*
X015570Y009849D01*
X015570Y010007D02*
X009390Y010007D01*
X009390Y010166D02*
X015570Y010166D01*
X015570Y010324D02*
X009390Y010324D01*
X009390Y010483D02*
X015570Y010483D01*
X015570Y010641D02*
X009390Y010641D01*
X009390Y010800D02*
X015570Y010800D01*
X015570Y010958D02*
X011158Y010958D01*
X011127Y010945D02*
X011259Y011000D01*
X011360Y011101D01*
X011415Y011233D01*
X011415Y011377D01*
X011360Y011509D01*
X011259Y011610D01*
X011127Y011665D01*
X010992Y011665D01*
X010600Y012057D01*
X010600Y012524D01*
X010536Y012678D01*
X010418Y012796D01*
X010264Y012860D01*
X010096Y012860D01*
X009942Y012796D01*
X009824Y012678D01*
X009760Y012524D01*
X009760Y011836D01*
X009824Y011682D01*
X009942Y011564D01*
X010096Y011500D01*
X010264Y011500D01*
X010418Y011564D01*
X010458Y011605D01*
X010695Y011368D01*
X010695Y011233D01*
X010750Y011101D01*
X010851Y011000D01*
X010983Y010945D01*
X011127Y010945D01*
X011367Y011117D02*
X015570Y011117D01*
X015570Y011275D02*
X011415Y011275D01*
X011391Y011434D02*
X015570Y011434D01*
X015570Y011592D02*
X011277Y011592D01*
X010906Y011751D02*
X015570Y011751D01*
X015570Y011909D02*
X010748Y011909D01*
X010600Y012068D02*
X015570Y012068D01*
X015570Y012226D02*
X010600Y012226D01*
X010600Y012385D02*
X015570Y012385D01*
X015570Y012543D02*
X010592Y012543D01*
X010512Y012702D02*
X015570Y012702D01*
X015570Y012860D02*
X008311Y012860D01*
X008283Y012869D02*
X008215Y012880D01*
X008180Y012880D01*
X008180Y012180D01*
X008620Y012180D01*
X008620Y012475D01*
X008609Y012543D01*
X008768Y012543D01*
X008760Y012385D02*
X008620Y012385D01*
X008609Y012543D02*
X008588Y012609D01*
X008556Y012671D01*
X008516Y012727D01*
X008467Y012776D01*
X008411Y012816D01*
X008349Y012848D01*
X008283Y012869D01*
X008180Y012860D02*
X008180Y012860D01*
X008180Y012880D02*
X008145Y012880D01*
X008077Y012869D01*
X008011Y012848D01*
X007949Y012816D01*
X007893Y012776D01*
X007844Y012727D01*
X007804Y012671D01*
X007772Y012609D01*
X007751Y012543D01*
X007592Y012543D01*
X007600Y012385D02*
X007740Y012385D01*
X007740Y012475D02*
X007740Y012180D01*
X008180Y012180D01*
X008180Y012180D01*
X008180Y012180D01*
X008620Y012180D01*
X008620Y011885D01*
X008609Y011817D01*
X008588Y011751D01*
X008556Y011689D01*
X008516Y011633D01*
X008467Y011584D01*
X008411Y011544D01*
X008349Y011512D01*
X008283Y011491D01*
X008215Y011480D01*
X008180Y011480D01*
X008180Y012180D01*
X008180Y012180D01*
X008180Y012180D01*
X008180Y012880D01*
X008049Y012860D02*
X000660Y012860D01*
X000660Y012702D02*
X004848Y012702D01*
X004824Y012678D02*
X004760Y012524D01*
X004760Y011836D01*
X004824Y011682D01*
X004942Y011564D01*
X005096Y011500D01*
X005264Y011500D01*
X005418Y011564D01*
X005536Y011682D01*
X005600Y011836D01*
X005600Y012524D01*
X005536Y012678D01*
X005418Y012796D01*
X005264Y012860D01*
X005096Y012860D01*
X004942Y012796D01*
X004824Y012678D01*
X004768Y012543D02*
X000660Y012543D01*
X000660Y012385D02*
X004760Y012385D01*
X004760Y012226D02*
X000660Y012226D01*
X000660Y012068D02*
X004760Y012068D01*
X004760Y011909D02*
X000660Y011909D01*
X000660Y011751D02*
X004796Y011751D01*
X004914Y011592D02*
X000660Y011592D01*
X000660Y011434D02*
X005387Y011434D01*
X005446Y011592D02*
X005545Y011592D01*
X005564Y011751D02*
X005704Y011751D01*
X005760Y011909D02*
X005600Y011909D01*
X005600Y012068D02*
X005760Y012068D01*
X005760Y012226D02*
X005600Y012226D01*
X005600Y012385D02*
X005760Y012385D01*
X005768Y012543D02*
X005592Y012543D01*
X005512Y012702D02*
X005848Y012702D01*
X006512Y012702D02*
X006848Y012702D01*
X006768Y012543D02*
X006592Y012543D01*
X006600Y012385D02*
X006760Y012385D01*
X006760Y012226D02*
X006600Y012226D01*
X006600Y012068D02*
X006760Y012068D01*
X006760Y011909D02*
X006600Y011909D01*
X006564Y011751D02*
X006704Y011751D01*
X006545Y011592D02*
X006446Y011592D01*
X006387Y011434D02*
X005981Y011434D01*
X005822Y011275D02*
X006228Y011275D01*
X006070Y011117D02*
X005664Y011117D01*
X005505Y010958D02*
X005911Y010958D01*
X005753Y010800D02*
X005346Y010800D01*
X005188Y010641D02*
X005594Y010641D01*
X006029Y010483D02*
X008970Y010483D01*
X008970Y010641D02*
X006188Y010641D01*
X006346Y010800D02*
X008970Y010800D01*
X008970Y010958D02*
X006505Y010958D01*
X006664Y011117D02*
X008970Y011117D01*
X008970Y011275D02*
X006822Y011275D01*
X006981Y011434D02*
X008970Y011434D01*
X008914Y011592D02*
X008474Y011592D01*
X008587Y011751D02*
X008796Y011751D01*
X008760Y011909D02*
X008620Y011909D01*
X008620Y012068D02*
X008760Y012068D01*
X008760Y012226D02*
X008620Y012226D01*
X008180Y012226D02*
X008180Y012226D01*
X008180Y012180D02*
X007740Y012180D01*
X007740Y011885D01*
X007751Y011817D01*
X007772Y011751D01*
X007804Y011689D01*
X007844Y011633D01*
X007893Y011584D01*
X007949Y011544D01*
X008011Y011512D01*
X008077Y011491D01*
X008145Y011480D01*
X008180Y011480D01*
X008180Y012180D01*
X008180Y012068D02*
X008180Y012068D01*
X008180Y011909D02*
X008180Y011909D01*
X008180Y011751D02*
X008180Y011751D01*
X008180Y011592D02*
X008180Y011592D01*
X007886Y011592D02*
X007446Y011592D01*
X007564Y011751D02*
X007773Y011751D01*
X007740Y011909D02*
X007600Y011909D01*
X007600Y012068D02*
X007740Y012068D01*
X007740Y012226D02*
X007600Y012226D01*
X007740Y012475D02*
X007751Y012543D01*
X007826Y012702D02*
X007512Y012702D01*
X008180Y012702D02*
X008180Y012702D01*
X008180Y012543D02*
X008180Y012543D01*
X008180Y012385D02*
X008180Y012385D01*
X008534Y012702D02*
X008848Y012702D01*
X009512Y012702D02*
X009848Y012702D01*
X009768Y012543D02*
X009592Y012543D01*
X009600Y012385D02*
X009760Y012385D01*
X009760Y012226D02*
X009600Y012226D01*
X009600Y012068D02*
X009760Y012068D01*
X009760Y011909D02*
X009600Y011909D01*
X009564Y011751D02*
X009796Y011751D01*
X009914Y011592D02*
X009446Y011592D01*
X009390Y011434D02*
X010629Y011434D01*
X010695Y011275D02*
X009390Y011275D01*
X009390Y011117D02*
X010743Y011117D01*
X010952Y010958D02*
X009390Y010958D01*
X008970Y010324D02*
X006015Y010324D01*
X006015Y010166D02*
X008970Y010166D01*
X008970Y010007D02*
X006015Y010007D01*
X006015Y009849D02*
X008860Y009849D01*
X008820Y009690D02*
X006015Y009690D01*
X006015Y009532D02*
X008852Y009532D01*
X008980Y009373D02*
X006015Y009373D01*
X005595Y009373D02*
X003920Y009373D01*
X004078Y009532D02*
X005595Y009532D01*
X005595Y009690D02*
X004237Y009690D01*
X004395Y009849D02*
X005290Y009849D01*
X005112Y010007D02*
X004554Y010007D01*
X004712Y010166D02*
X005070Y010166D01*
X005100Y010324D02*
X004871Y010324D01*
X005029Y010483D02*
X005223Y010483D01*
X004753Y010800D02*
X000660Y010800D01*
X000660Y010958D02*
X004911Y010958D01*
X005070Y011117D02*
X000660Y011117D01*
X000660Y011275D02*
X005228Y011275D01*
X004594Y010641D02*
X000660Y010641D01*
X000660Y010483D02*
X004436Y010483D01*
X004277Y010324D02*
X000660Y010324D01*
X000660Y010166D02*
X004119Y010166D01*
X003960Y010007D02*
X000660Y010007D01*
X000660Y009849D02*
X003802Y009849D01*
X003643Y009690D02*
X000660Y009690D01*
X000660Y009532D02*
X003485Y009532D01*
X003326Y009373D02*
X000660Y009373D01*
X000660Y009215D02*
X003168Y009215D01*
X003009Y009056D02*
X000660Y009056D01*
X000660Y008898D02*
X002851Y008898D01*
X002692Y008739D02*
X000660Y008739D01*
X000660Y008581D02*
X002534Y008581D01*
X002375Y008422D02*
X000660Y008422D01*
X000660Y008264D02*
X002217Y008264D01*
X002058Y008105D02*
X000660Y008105D01*
X000660Y007947D02*
X001970Y007947D01*
X001970Y007788D02*
X000660Y007788D01*
X000660Y007630D02*
X001970Y007630D01*
X001970Y007471D02*
X000660Y007471D01*
X000660Y007313D02*
X001970Y007313D01*
X001895Y007154D02*
X000660Y007154D01*
X000660Y006996D02*
X001820Y006996D01*
X001829Y006837D02*
X000660Y006837D01*
X000660Y006679D02*
X001922Y006679D01*
X002540Y006996D02*
X004117Y006996D01*
X004070Y007154D02*
X002465Y007154D01*
X002390Y007313D02*
X004095Y007313D01*
X004212Y007471D02*
X002390Y007471D01*
X003761Y009215D02*
X005595Y009215D01*
X005570Y009849D02*
X005595Y009849D01*
X006015Y007471D02*
X010712Y007471D01*
X010595Y007313D02*
X006015Y007313D01*
X006015Y007154D02*
X010570Y007154D01*
X010449Y006996D02*
X006015Y006996D01*
X005884Y006837D02*
X010290Y006837D01*
X010132Y006679D02*
X005728Y006679D01*
X006050Y006520D02*
X009973Y006520D01*
X010250Y006203D02*
X015570Y006203D01*
X015570Y006045D02*
X010091Y006045D01*
X010408Y006362D02*
X015570Y006362D01*
X015570Y006520D02*
X010567Y006520D01*
X010725Y006679D02*
X015570Y006679D01*
X015570Y006837D02*
X011043Y006837D01*
X011243Y006996D02*
X015570Y006996D01*
X015570Y007154D02*
X011290Y007154D01*
X011265Y007313D02*
X015570Y007313D01*
X015570Y007471D02*
X011148Y007471D01*
X010471Y011592D02*
X010446Y011592D01*
X015570Y013019D02*
X000660Y013019D01*
X000660Y013177D02*
X015570Y013177D01*
X015570Y013336D02*
X000660Y013336D01*
X000660Y013494D02*
X015570Y013494D01*
X015570Y013653D02*
X000660Y013653D01*
X000660Y013811D02*
X015570Y013811D01*
X015570Y013970D02*
X000660Y013970D01*
X000660Y014128D02*
X015570Y014128D01*
X015570Y014287D02*
X000660Y014287D01*
X000660Y014445D02*
X015570Y014445D01*
X015570Y014604D02*
X000660Y014604D01*
X006145Y005886D02*
X015570Y005886D01*
X009882Y003033D02*
X009478Y003033D01*
X009371Y003140D02*
X008989Y003140D01*
X008720Y002871D01*
X008720Y002489D01*
X008989Y002220D01*
X009371Y002220D01*
X009640Y002489D01*
X009640Y002871D01*
X009371Y003140D01*
X009636Y002875D02*
X009724Y002875D01*
X009720Y002716D02*
X009640Y002716D01*
X009640Y002558D02*
X009720Y002558D01*
X009810Y002399D02*
X009550Y002399D01*
X009391Y002241D02*
X009969Y002241D01*
X009931Y002082D02*
X009429Y002082D01*
X009371Y002140D02*
X008989Y002140D01*
X008720Y001871D01*
X008720Y001489D01*
X008989Y001220D01*
X009371Y001220D01*
X009640Y001489D01*
X009640Y001871D01*
X009371Y002140D01*
X009587Y001924D02*
X009773Y001924D01*
X009720Y001765D02*
X009640Y001765D01*
X009640Y001607D02*
X009720Y001607D01*
X009761Y001448D02*
X009599Y001448D01*
X009440Y001290D02*
X009920Y001290D01*
X008920Y001290D02*
X008440Y001290D01*
X008371Y001220D02*
X008640Y001489D01*
X008640Y001871D01*
X008371Y002140D01*
X007989Y002140D01*
X007720Y001871D01*
X007720Y001489D01*
X007989Y001220D01*
X008371Y001220D01*
X008599Y001448D02*
X008761Y001448D01*
X008720Y001607D02*
X008640Y001607D01*
X008640Y001765D02*
X008720Y001765D01*
X008773Y001924D02*
X008587Y001924D01*
X008429Y002082D02*
X008931Y002082D01*
X008969Y002241D02*
X008391Y002241D01*
X008371Y002220D02*
X008640Y002489D01*
X008640Y002871D01*
X008371Y003140D01*
X007989Y003140D01*
X007720Y002871D01*
X007720Y002489D01*
X007989Y002220D01*
X008371Y002220D01*
X008550Y002399D02*
X008810Y002399D01*
X008720Y002558D02*
X008640Y002558D01*
X008640Y002716D02*
X008720Y002716D01*
X008724Y002875D02*
X008636Y002875D01*
X008478Y003033D02*
X008882Y003033D01*
X007882Y003033D02*
X007478Y003033D01*
X007371Y003140D02*
X006989Y003140D01*
X006720Y002871D01*
X006720Y002489D01*
X006989Y002220D01*
X007371Y002220D01*
X007640Y002489D01*
X007640Y002871D01*
X007371Y003140D01*
X007636Y002875D02*
X007724Y002875D01*
X007720Y002716D02*
X007640Y002716D01*
X007640Y002558D02*
X007720Y002558D01*
X007810Y002399D02*
X007550Y002399D01*
X007391Y002241D02*
X007969Y002241D01*
X007931Y002082D02*
X007429Y002082D01*
X007371Y002140D02*
X006989Y002140D01*
X006720Y001871D01*
X006720Y001489D01*
X006989Y001220D01*
X007371Y001220D01*
X007640Y001489D01*
X007640Y001871D01*
X007371Y002140D01*
X007587Y001924D02*
X007773Y001924D01*
X007720Y001765D02*
X007640Y001765D01*
X007640Y001607D02*
X007720Y001607D01*
X007761Y001448D02*
X007599Y001448D01*
X007440Y001290D02*
X007920Y001290D01*
X006920Y001290D02*
X006440Y001290D01*
X006371Y001220D02*
X006640Y001489D01*
X006640Y001871D01*
X006371Y002140D01*
X005989Y002140D01*
X005720Y001871D01*
X005720Y001489D01*
X005989Y001220D01*
X006371Y001220D01*
X006599Y001448D02*
X006761Y001448D01*
X006720Y001607D02*
X006640Y001607D01*
X006640Y001765D02*
X006720Y001765D01*
X006773Y001924D02*
X006587Y001924D01*
X006429Y002082D02*
X006931Y002082D01*
X006969Y002241D02*
X006391Y002241D01*
X006371Y002220D02*
X006640Y002489D01*
X006640Y002871D01*
X006371Y003140D01*
X005989Y003140D01*
X005720Y002871D01*
X005720Y002489D01*
X005989Y002220D01*
X006371Y002220D01*
X006550Y002399D02*
X006810Y002399D01*
X006720Y002558D02*
X006640Y002558D01*
X006640Y002716D02*
X006720Y002716D01*
X006724Y002875D02*
X006636Y002875D01*
X006478Y003033D02*
X006882Y003033D01*
X005969Y002241D02*
X005391Y002241D01*
X005371Y002220D02*
X005640Y002489D01*
X005640Y002871D01*
X005371Y003140D01*
X004989Y003140D01*
X004720Y002871D01*
X004720Y002489D01*
X004989Y002220D01*
X005371Y002220D01*
X005371Y002140D02*
X004989Y002140D01*
X004720Y001871D01*
X004720Y001489D01*
X004989Y001220D01*
X005371Y001220D01*
X005640Y001489D01*
X005640Y001871D01*
X005371Y002140D01*
X005429Y002082D02*
X005931Y002082D01*
X005773Y001924D02*
X005587Y001924D01*
X005640Y001765D02*
X005720Y001765D01*
X005720Y001607D02*
X005640Y001607D01*
X005599Y001448D02*
X005761Y001448D01*
X005920Y001290D02*
X005440Y001290D01*
X004920Y001290D02*
X000660Y001290D01*
X000660Y001448D02*
X004761Y001448D01*
X004720Y001607D02*
X000660Y001607D01*
X000660Y001765D02*
X004720Y001765D01*
X004773Y001924D02*
X000660Y001924D01*
X000660Y002082D02*
X004931Y002082D01*
X004969Y002241D02*
X000660Y002241D01*
X000660Y002399D02*
X004810Y002399D01*
X004720Y002558D02*
X000660Y002558D01*
X000660Y002716D02*
X004720Y002716D01*
X004724Y002875D02*
X000660Y002875D01*
X000660Y003033D02*
X004882Y003033D01*
X005478Y003033D02*
X005882Y003033D01*
X005724Y002875D02*
X005636Y002875D01*
X005640Y002716D02*
X005720Y002716D01*
X005720Y002558D02*
X005640Y002558D01*
X005550Y002399D02*
X005810Y002399D01*
D13*
X005930Y006180D02*
X009930Y006180D01*
X010930Y007180D01*
X009180Y009680D02*
X009180Y012180D01*
X010180Y012180D02*
X011055Y011305D01*
X007180Y011930D02*
X007180Y012180D01*
X007180Y011930D02*
X005805Y010555D01*
X005805Y007055D01*
X005430Y006680D01*
X004930Y007180D01*
X004430Y007180D01*
X005430Y007180D02*
X003930Y008680D01*
X005430Y010180D02*
X005805Y010555D01*
X006180Y011930D02*
X006180Y012180D01*
X006180Y011930D02*
X002180Y007930D01*
X002180Y006930D01*
X005430Y006680D02*
X005930Y006180D01*
D14*
X005930Y006180D03*
X005430Y007180D03*
X004430Y007180D03*
X003930Y008680D03*
X005430Y010180D03*
X002180Y006930D03*
X009180Y009680D03*
X011055Y011305D03*
X010930Y007180D03*
M02*
